<?xml version="1.0" encoding="utf-8"?>
<!-- Generator: Adobe Illustrator 21.1.0, SVG Export Plug-In . SVG Version: 6.00 Build 0)  -->
<svg version="1.1" id="图层_1" xmlns="http://www.w3.org/2000/svg" xmlns:xlink="http://www.w3.org/1999/xlink" x="0px" y="0px"
	 viewBox="0 0 54 73" style="enable-background:new 0 0 54 73;" xml:space="preserve">
<style type="text/css">
	.st0{fill:url(#Combined-Shape_1_);}
</style>
<title>Combined Shape</title>
<desc>Created with Sketch.</desc>
<g id="Page-1">
	
		<linearGradient id="Combined-Shape_1_" gradientUnits="userSpaceOnUse" x1="-545.5383" y1="5.6836" x2="-544.6669" y2="4.9465" gradientTransform="matrix(53.6573 0 0 60 29277.4473 -291)">
		<stop  offset="0" style="stop-color:#7EC2F3"/>
		<stop  offset="1" style="stop-color:#108EE9"/>
	</linearGradient>
	<path id="Combined-Shape" class="st0" d="M52.9,43.9C51,60.5,27,73,27,73S3,60.5,1.1,43.9S0.8,7.4,0.8,7.4s8.6,1.8,13.7,0
		C22.7,4.4,27,0,27,0s4.3,4.4,12.5,7.4c5.1,1.8,13.7,0,13.7,0S54.8,27.3,52.9,43.9L52.9,43.9z M38.8,43.5l-7.5-5.4
		c0.7-1.3,1.1-2.8,1.1-4.4c0-0.3,0-0.6,0-0.8l7.7-4.5c1.2,0.7,2.8,0.6,3.8-0.5c1.2-1.2,1.2-3.2,0-4.4s-3.2-1.2-4.4,0
		c-0.9,0.9-1.1,2.2-0.7,3.3l-6.9,4c-0.7-2.1-2.2-3.8-4-4.9l1.4-6.8c0.1,0,0.2,0,0.3,0c1.7,0,3.1-1.4,3.1-3.1s-1.4-3.1-3.1-3.1
		s-3.1,1.4-3.1,3.1c0,0.9,0.4,1.7,0.9,2.2L26,25.1c-0.8-0.2-1.6-0.4-2.5-0.4c-1.7,0-3.2,0.5-4.6,1.3l-4.3-3.8
		c0.8-1.5,0.5-3.4-0.8-4.7c-1.6-1.6-4.2-1.6-5.8,0s-1.6,4.2,0,5.8c1.4,1.4,3.6,1.6,5.2,0.4l4,3.5c-1.7,1.6-2.7,3.9-2.7,6.4
		c0,2.7,1.2,5.2,3.2,6.8l-3.5,3.7c-0.6-0.4-1.4-0.7-2.3-0.7c-2.3,0-4.1,1.8-4.1,4.1s1.8,4.1,4.1,4.1s4.1-1.8,4.1-4.1
		c0-0.7-0.2-1.4-0.5-1.9l3.8-4.1c1.2,0.6,2.6,1,4,1c2.6,0,5-1.1,6.6-2.9l7.3,5.3c-0.5,0.8-0.8,1.7-0.8,2.7c0,2.8,2.3,5.1,5.1,5.1
		s5.1-2.3,5.1-5.1s-2.3-5.1-5.1-5.1C40.6,42.6,39.7,43,38.8,43.5z"/>
</g>
</svg>
