<?xml version="1.0" encoding="utf-8"?>
<!-- Generator: Adobe Illustrator 18.0.0, SVG Export Plug-In . SVG Version: 6.00 Build 0)  -->
<!DOCTYPE svg PUBLIC "-//W3C//DTD SVG 1.1//EN" "http://www.w3.org/Graphics/SVG/1.1/DTD/svg11.dtd">
<svg version="1.1" id="图层_1" xmlns="http://www.w3.org/2000/svg" xmlns:xlink="http://www.w3.org/1999/xlink" x="0px" y="0px"
	 viewBox="516 473 96 150" enable-background="new 516 473 96 150" xml:space="preserve">
<title>Group</title>
<desc>Created with Sketch.</desc>
<path id="Fill-360" fill="#C3C8DB" d="M533,491.8l0.9-0.2c0,0-0.8-0.7-1.2-0.7s-1.4,0.1-2.2-0.2c-0.7-0.2-1.9-0.7-1.9-1.2
	s-1.2-0.7-1.4-0.9c-0.2-0.2-0.9-0.1-0.7-0.7c0.2-0.7-0.1-0.7-0.2-1.2c-0.1-0.4-0.4-0.8-0.1-1.2s1.1-0.7,1.1-1.2c0-0.6-0.7-0.7-1-0.8
	c-0.3-0.2-1.7,0-2.1-0.3c-0.2-0.2-1-0.3-1.7-0.3c-1.3-0.1-1.9-0.7-2.4-0.2c-0.2,0.2,0,2.4,0,2.7l-0.1,1.1c0.6,0.2,1.2,0.3,2,0.5
	c0.1,0.3,0.2,0.7,0.3,1.1v0.4l0.4,1.8l1.2,1.4l1.1,0.7c0.2,0.1,0.3,0.2,0.5,0.2l0.7,0.8c1,0.7,2.2,1.3,3.3,1.7
	c0.2,0.1,1.2,0.2,2.1,0.2c0.1,0,0.9,0.3,0.9,0.3c0.2-0.7,0.5-1.5,0.7-2.5L533,491.8"/>
<path id="Fill-361" fill="#AAA4C5" d="M533.1,493.5l0.7-2c0,0-0.6-0.6-1-0.6s-1.4,0.1-2.2-0.2c-0.7-0.2-1.9-0.7-1.9-1.2
	s-1.2-0.7-1.4-0.9c-0.2-0.2-0.9-0.1-0.7-0.7c0.2-0.7-0.1-0.7-0.2-1.2c-0.1-0.4-0.4-0.8-0.1-1.2c0.3-0.4,1.1-0.7,1.1-1.2
	c0-0.6-0.7-0.7-1-0.8s-1.7,0-2.1-0.3c-0.2-0.1-0.6-0.2-1-0.2c-0.2,0-1-0.5-1.7-1c-0.7-0.4-1.4-0.9-1.4-0.7c0.1,0.9,0.1,2.7,0.1,3
	l1.1,0.5c0.4,0.1,1.2,0.2,1.8,0.3c0.3,0.1,0.7,0.2,1,0.3c-0.2,0.9,0.1,1.7,0.3,2.5l-0.1,0.5l0.2,1l0.7,0.7l0.6,0.3
	c0.3,0.2,0.7,0.3,1,0.4c0.2,0.3,0.4,0.6,0.7,0.8c1,0.7,2.2,1.2,3.5,1.4c0.2,0,0.3,0,0.6,0s0.5,0,0.7,0l0.3,0.2L533.1,493.5"/>
<path id="Fill-362" fill="#C3C8DB" d="M598.9,513.3l3.8,1.6l0.2-0.6c0.3-1,0.7-1.9,1.1-2.9c0.4-0.9,0.9-1.7,1.4-2.7l0.4-0.7
	l-3.7-1.7c-0.2,0.3-1.2,2.2-1.7,3.2C599.9,510.4,598.9,513.3,598.9,513.3"/>
<path id="Fill-363" fill="#AAA4C5" d="M598.9,513.3l1.9,0.8l0.1-0.3c0.4-1.1,0.7-2.2,1.2-3.2s1-2,1.6-3l0.2-0.3l-1.9-0.9
	c-0.2,0.3-1.2,2.2-1.7,3.2C599.9,510.4,598.9,513.3,598.9,513.3"/>
<path id="Fill-364" fill="#EFEFEE" d="M597.2,480.2C597.2,480.3,597.2,480.3,597.2,480.2C597.2,480.3,597.3,480.3,597.2,480.2
	L597.2,480.2"/>
<path id="Fill-365" fill="#6F8F9D" d="M597.2,480.3L597.2,480.3L597.2,480.3L597.2,480.3z M597.2,480.3L597.2,480.3L597.2,480.3
	L597.2,480.3z M597.2,480.3L597.2,480.3L597.2,480.3z M597.2,480.4c-0.1,0-0.1-0.1-0.1-0.2c0,0,0-0.1,0.1-0.1l0,0l0,0l0,0
	c0,0,0,0,0.1,0s0.1,0,0.1,0c0.1,0,0.1,0.1,0.1,0.1C597.3,480.3,597.3,480.3,597.2,480.4L597.2,480.4z"/>
<path id="Fill-366" fill="#EFEFEE" d="M597.2,480.8C597.2,480.8,597.3,480.8,597.2,480.8C597.3,480.7,597.3,480.6,597.2,480.8
	L597.2,480.8"/>
<path id="Fill-367" fill="#6F8F9D" d="M597.2,480.8L597.2,480.8L597.2,480.8z M597.2,480.8L597.2,480.8L597.2,480.8L597.2,480.8
	L597.2,480.8z M597.3,480.9c-0.1,0-0.1,0-0.2-0.1l0,0c0,0,0,0,0-0.1s0-0.1,0-0.1l0.1-0.1c0.2,0,0.2,0.1,0.2,0.2
	C597.4,480.8,597.4,480.8,597.3,480.9C597.4,480.8,597.4,480.9,597.3,480.9L597.3,480.9z"/>
<path id="Fill-368" fill="#C3C8DB" d="M540.4,532.1l-0.7-2.2c-0.4-1.2-1.7-3-2.3-4.1l3.5-2.1c0.1,0.1,0.7,1,0.8,1.1
	c0.7,0.9,1.6,2.5,2.1,4.1c0,0.1,0.3,1.5,0.4,1.6L540.4,532.1"/>
<path id="Fill-369" fill="#AAA4C5" d="M542.3,531.3l1.8-0.7c0-0.2-0.4-1.5-0.4-1.7c-0.5-1.7-1.4-3.2-2.1-4.1
	c-0.1-0.1-0.7-1.1-0.7-1.1l-1.8,1.1c0.4,0.7,1.3,1.8,1.9,3.1C541.8,529.1,542.1,530.4,542.3,531.3"/>
<path id="Fill-370" fill="#6F8F9D" d="M549.8,503.2L549.8,503.2C549.9,503.2,549.9,503.2,549.8,503.2L549.8,503.2
	C549.9,503.1,549.8,503.1,549.8,503.2C549.8,503.1,549.8,503.1,549.8,503.2z M542.9,511.4L542.9,511.4c0,0,0.1,0,0.2,0
	c0.2-0.1,0.2-0.1,0.4-0.2l0,0c0,0,0-0.1,0-0.2s0-0.2,0.1-0.2c0.1-0.1,0.2-0.2,0.2-0.3c0-0.1,0.2-0.2,0.4-0.2h0.1c0.1,0,0.1,0,0.2,0
	s0.2,0,0.2-0.2c0.2-0.2,0.2-0.2,0.3-0.2c0.2,0,0.2,0.2,0.2,0.2c0.1-0.1,0.2-0.1,0.2-0.2c0.1,0,0.1,0,0.1-0.2s0.2-0.7,0.6-0.8
	c0.2-0.1,0.2,0,0.3-0.2c0.1-0.1,0.3-0.3,0.7-0.4c0.1,0,0.2,0.1,0.2,0.2l0,0c0.1-0.1,0.3-0.3,0.6-0.5c0.1-0.1,0.2-0.2,0.2-0.2H548
	c-0.1,0-0.2-0.1-0.2-0.2s0-0.1,0-0.2c0-0.2,0.1-0.2,0.2-0.4c0.1-0.1,0.2-0.3,0.2-0.4c0-0.2,0-0.2,0.1-0.4c0.1-0.2,0.1-0.1,0.1-0.3
	c0-0.3,0.2-0.9,0.5-1.1c0.1-0.1,0.2-0.2,0.2-0.2l0,0c0-0.1,0-0.1,0-0.2s0.1-0.2,0.2-0.3c0.2-0.1,0.6-0.4,0.6-0.5c0,0,0,0,0-0.1
	c0-0.2-0.1-0.2-0.1-0.3c0,0-0.1-0.1-0.1-0.2s0.1-0.2,0.2-0.2c0.2-0.1,0.3-0.2,0.5-0.2h0.1c0.1,0,0.1,0.1,0.1,0.1v0.1
	c-0.1,0.2-0.2,0.3-0.2,0.3l0,0l0,0c0.1-0.2,0.2-0.4,0.4-0.5c0.1-0.1,0.2-0.1,0.2-0.2c0.1,0,0,0,0,0l0,0c-0.1-0.2-0.2-0.9-0.2-1.2
	s-0.3-0.7-0.4-0.7c-0.2-0.1-1,0-1.1-0.5c0-0.1,0-0.2-0.1-0.2l0,0c-0.2,0.2-0.4,0.3-0.4,0.5l0,0l0,0l0,0c0,0.2-0.1,0.4-0.2,0.4
	c-0.1,0-0.2-0.1-0.2-0.1c-0.1-0.2-0.2-0.3-0.4-0.4s-0.2-0.2-0.3-0.2h-0.1c-0.2,0.1-0.2,0.1-0.4,0.1s-0.3,0-0.5-0.1
	c-0.1,0-0.2,0-0.2,0c-0.1,0-0.2,0-0.2,0.1c-0.1,0.1-0.1,0.1-0.1,0.2c0,0.2-0.2,0.3-0.3,0.4s-0.2,0.2-0.4,0.2c-0.1,0-0.2,0-0.2-0.1
	c-0.1-0.1-0.2-0.1-0.2-0.1l0,0c-0.1,0.1-0.1,0.2-0.3,0.2c-0.1,0-0.2-0.1-0.2-0.1c-0.2-0.2-0.2-0.2-0.3-0.2c-0.2,0-0.4-0.1-0.5-0.2
	c-0.1,0-0.1,0-0.1,0s-0.1,0-0.2,0.1c-0.2,0.1-0.5,0.5-0.5,0.6l0,0l0,0c0,0.1,0.1,0.2,0.1,0.2s-0.1,0.2-0.2,0.2
	c-0.1,0-0.2,0.1-0.3,0.1s-0.2,0-0.3-0.2c-0.1-0.1,0-0.2-0.2-0.2H542c-0.2,0-0.6,0.1-0.6,0.2c-0.1,0.2-0.2,0.3-0.2,0.4
	c0.1-0.1,0.2-0.1,0.2-0.1s0.2,0.1,0.2,0.2v0.1c0,0.2-0.1,0.2-0.2,0.3c-0.2,0.1-0.2,0-0.2,0.2c-0.2,0.2-0.4,0.3-0.7,0.3
	c-0.3,0.1-0.3,0.2-0.7,0.5c-0.1,0.1-0.6,0.6-1,0.8c-0.4,0.2-0.7,0.4-0.7,0.4c0,0.1,0,0.1,0,0.1c0,0.1,0,0.1,0,0.2s0,0.1,0,0.2v0.1
	c0,0,0,0.1,0.1,0.2c0,0.1,0,0.1,0,0.2c0,0.2-0.1,0.3-0.2,0.4c-0.1,0.1-0.1,0.1-0.1,0.2c0,0,0,0.1,0,0.2s0.1,0.2,0.1,0.4s0,0.2,0,0.4
	s-0.1,0.2-0.1,0.3c0,0.1,0,0.1,0.1,0.2c0.2,0.2,0.4,0.3,0.4,0.9v0.1c0,0.2,0,0.5,0,0.7s0,0.2,0,0.2c0.2,0.1,1.1,0.2,1.3,0.6
	c0.2,0.2,0.2,0.2,0.3,0.2c0,0,0,0,0.1,0h0.1c0.2,0,0.4,0.1,0.6,0.3c0.2,0.2,0.2,0.2,0.2,0.2l0,0c0.1,0,0.4-0.1,0.7-0.1
	c0.2,0,0.5,0,0.7,0.2s0.2,0.2,0.2,0.2h0.1c0.2,0,0.2-0.1,0.3-0.1l0,0C542.8,511.4,542.9,511.4,542.9,511.4z M542.7,511.6
	L542.7,511.6L542.7,511.6z M542.7,511.6c-0.1,0-0.2,0.1-0.2,0.1c-0.1,0-0.1,0-0.2,0c-0.2,0-0.3-0.2-0.4-0.3c0-0.1-0.2-0.1-0.4-0.1
	s-0.7,0.1-0.7,0.1h-0.1c-0.2,0-0.3-0.2-0.4-0.4c-0.2-0.2-0.2-0.2-0.3-0.2h-0.1c0,0,0,0-0.1,0c-0.2,0-0.4-0.1-0.6-0.3
	c-0.1-0.2-1-0.4-1.2-0.4s-0.2-0.2-0.2-0.4s0-0.4,0-0.7v-0.1c0-0.5-0.1-0.5-0.3-0.7c-0.1-0.2-0.2-0.2-0.2-0.4s0-0.2,0.1-0.4
	c0-0.2,0-0.2,0-0.4s0-0.2,0-0.3c0-0.1-0.1-0.2-0.1-0.2c0-0.1,0.1-0.2,0.1-0.3c0.1-0.1,0.1-0.2,0.1-0.3v-0.1c0-0.1-0.1-0.2-0.1-0.2
	s0-0.1,0-0.2s0-0.1,0-0.2c0,0,0-0.1,0-0.2s0-0.1,0-0.2c0.1-0.3,0.4-0.4,0.8-0.7c0.3-0.2,0.9-0.7,0.9-0.7l0.1,0.1l-0.1-0.1
	c0.2-0.1,0.2-0.4,0.7-0.5c0.2,0,0.4-0.2,0.5-0.2c0.1-0.1,0.1-0.2,0.2-0.2c0,0,0,0-0.1,0s-0.2-0.2-0.2-0.2s0-0.2,0.1-0.2
	c0.1-0.2,0.2-0.3,0.2-0.5c0.2-0.2,0.5-0.2,0.8-0.2h0.1c0.3,0,0.5,0.2,0.5,0.3c0,0,0,0,0.1,0s0.2,0,0.2-0.1l0,0c0,0,0-0.1,0-0.2v-0.1
	c0-0.3,0.3-0.6,0.6-0.7c0.2-0.1,0.2-0.2,0.3-0.2s0.2,0.1,0.2,0.1c0.1,0.1,0.2,0.1,0.3,0.2c0.2,0,0.3,0.1,0.5,0.2
	c0,0,0.1-0.1,0.1-0.2c0.1-0.1,0.2-0.1,0.2-0.1c0.2,0,0.2,0.1,0.4,0.2c0,0,0,0,0.1,0s0.2-0.1,0.2-0.1c0.1-0.1,0.2-0.2,0.2-0.2l0,0
	c0-0.1,0-0.2,0.2-0.3c0.1-0.1,0.2-0.2,0.4-0.2c0.1,0,0.2,0,0.3,0c0.2,0,0.3,0.1,0.4,0.1s0.2,0,0.2-0.1c0.1-0.1,0.2-0.1,0.2-0.1
	c0.2,0,0.3,0.1,0.4,0.2c0.2,0.1,0.4,0.3,0.5,0.5v-0.1l0,0v-0.1c0-0.3,0.2-0.6,0.5-0.7c0.1-0.1,0.2-0.1,0.2-0.1
	c0.3,0.1,0.2,0.3,0.2,0.5s0.6,0.2,0.8,0.2c0.3,0.1,0.6,0.6,0.7,0.9c0,0.3,0.2,1,0.2,1.2c0,0,0,0.1,0,0.2c0,0.2-0.2,0.2-0.3,0.3
	c-0.2,0.2-0.3,0.3-0.3,0.4s0,0.3-0.2,0.3s-0.2-0.1-0.2-0.2c0,0,0,0.1,0,0.2c0,0,0,0,0,0.1c-0.1,0.3-0.5,0.6-0.7,0.7c0,0,0,0,0,0.1
	s0,0.1,0,0.2v0.1l0,0c0,0.2-0.2,0.3-0.3,0.5c-0.1,0.1-0.4,0.7-0.3,0.9c0,0.2-0.1,0.3-0.2,0.4c-0.1,0.2-0.1,0.1-0.1,0.3
	c0,0.2-0.2,0.5-0.2,0.6c0,0,0,0,0,0.1c0,0,0.1-0.1,0.2-0.1c0.2,0,0.2,0.2,0.2,0.2v0.1c0,0.2-0.2,0.4-0.4,0.6s-0.4,0.3-0.5,0.5
	c-0.1,0.1-0.2,0.2-0.2,0.2s-0.2-0.1-0.2-0.2c-0.1,0-0.4,0.2-0.4,0.2c-0.2,0.2-0.2,0.2-0.5,0.3c-0.1,0-0.3,0.5-0.3,0.6s0,0.3-0.2,0.4
	s-0.2,0.1-0.2,0.2c0,0-0.1,0.1-0.2,0.1c-0.2,0-0.2-0.2-0.2-0.2v-0.1l-0.1,0.1c-0.2,0.2-0.3,0.2-0.5,0.2c-0.1,0-0.1,0-0.2,0
	c0,0,0,0-0.1,0s-0.2,0-0.2,0l0,0c0,0.1-0.1,0.2-0.2,0.4l0,0v0.1v0.1c0,0.1-0.1,0.2-0.2,0.2c-0.2,0-0.2,0.1-0.3,0.2
	C542.9,511.6,542.8,511.7,542.7,511.6L542.7,511.6C542.8,511.8,542.8,511.7,542.7,511.6z"/>
<path id="Fill-371" fill="#FFFCDD" d="M539.9,494.7c0.1,0,0.2-0.1,0.2-0.2s0-0.2-0.1-0.2C539.8,494.4,539.7,494.7,539.9,494.7"/>
<path id="Fill-372" fill="#6F8F9D" d="M539.9,494.6L539.9,494.6L539.9,494.6z M539.9,494.7L539.9,494.7L539.9,494.7z M539.8,494.8
	c-0.1,0-0.2-0.2-0.2-0.2c0-0.2,0.1-0.3,0.2-0.4h0.1c0.2,0,0.2,0.2,0.2,0.2v0.1C540.1,494.7,540,494.8,539.8,494.8L539.8,494.8
	L539.8,494.8z"/>
<path id="Fill-373" fill="#FFFCDD" d="M547.6,496.4C547.6,496.4,547.7,496.3,547.6,496.4C547.5,496.4,547.5,496.5,547.6,496.4
	L547.6,496.4"/>
<path id="Fill-374" fill="#6F8F9D" d="M547.6,496.4L547.6,496.4L547.6,496.4z M547.6,496.3L547.6,496.3L547.6,496.3z M547.4,496.4
	c0-0.1,0.1-0.2,0.2-0.2h0.1c0.1,0,0.2,0.2,0.2,0.2c0,0.1,0,0.1,0,0.1l-0.1-0.1l0,0l0,0l0,0l0.1,0.1c0,0-0.1,0.1-0.2,0.1
	C547.5,496.6,547.4,496.5,547.4,496.4z"/>
<path id="Fill-375" fill="#FFFCDD" d="M548,496.8C548,496.8,548,496.6,548,496.8c-0.2-0.1-0.2,0.1-0.3,0.2c0,0.1,0.1,0.2,0.2,0.1
	C548,496.8,548,496.8,548,496.8"/>
<path id="Fill-376" fill="#6F8F9D" d="M547.6,496.8L547.6,496.8c0.1-0.2,0.2-0.3,0.2-0.3s0,0,0.1,0c0.2,0,0.2,0.2,0.2,0.2l0,0h-0.2
	h0.2c0,0,0,0.2-0.2,0.3h-0.1C547.6,497.1,547.6,496.9,547.6,496.8"/>
<path id="Fill-377" fill="#FFFCDD" d="M548.7,495.1c0,0,0.1-0.2,0-0.2c0-0.1-0.2,0-0.3,0.2s-0.2,0.2-0.1,0.3c0.1,0.1,0.2,0,0.2-0.1
	C548.7,495.2,548.7,495.1,548.7,495.1"/>
<path id="Fill-378" fill="#6F8F9D" d="M548.6,495.1C548.6,495.2,548.5,495.2,548.6,495.1C548.6,495.2,548.6,495.2,548.6,495.1
	L548.6,495.1h0.2H548.6L548.6,495.1z M548.3,495.4c-0.1-0.1-0.1-0.1-0.1-0.2s0.1-0.2,0.2-0.2c0.1-0.2,0.2-0.2,0.3-0.2s0.2,0,0.2,0.1
	v0.1c0,0.1-0.1,0.2-0.1,0.2s0,0.1-0.1,0.2c-0.1,0-0.1,0.2-0.2,0.2C548.5,495.5,548.4,495.4,548.3,495.4z"/>
<path id="Fill-379" fill="#FFFCDD" d="M557.6,491.7C557.7,491.7,557.8,491.6,557.6,491.7C557.6,491.5,557.5,491.7,557.6,491.7"/>
<path id="Fill-380" fill="#6F8F9D" d="M557.7,491.7L557.7,491.7L557.7,491.7z M557.6,491.9v-0.2V491.9c-0.1,0-0.2-0.1-0.2-0.2
	c0-0.2,0.1-0.2,0.2-0.2c0.1,0,0.1,0,0.2,0s0.1,0.1,0.1,0.2C557.8,491.8,557.8,491.9,557.6,491.9L557.6,491.9z"/>
<path id="Fill-381" fill="#FFFCDD" d="M559.1,491C559.2,491,559.3,491,559.1,491C559.1,490.9,559,491,559.1,491"/>
<path id="Fill-382" fill="#6F8F9D" d="M559.2,491L559.2,491L559.2,491z M559.1,491v0.2c-0.1,0-0.2-0.1-0.2-0.2
	c0-0.2,0.1-0.2,0.2-0.2c0.1,0,0.1,0,0.1,0c0.1,0,0.1,0.1,0.1,0.2c0,0.2-0.2,0.2-0.2,0.2l0,0L559.1,491L559.1,491z"/>
<path id="Fill-383" fill="#FFFCDD" d="M561.5,491.4c0.1-0.1,0-0.2-0.1-0.2C561.3,491.4,561.4,491.4,561.5,491.4"/>
<path id="Fill-384" fill="#6F8F9D" d="M561.4,491.3L561.4,491.3L561.4,491.3z M561.4,491.5c-0.2,0-0.2-0.1-0.2-0.2s0.1-0.2,0.1-0.2
	c0-0.1,0.1-0.1,0.2-0.1c0.2,0,0.2,0.2,0.2,0.2c0,0.1,0,0.1,0,0.2l-0.1-0.1l0.1,0.1C561.6,491.5,561.5,491.5,561.4,491.5L561.4,491.5
	z"/>
<path id="Fill-385" fill="#FFFCDD" d="M561.2,490.3c0,0-0.2,0-0.3,0.2c-0.2,0.2-0.2,0.2-0.2,0.3c0.1,0.2,0.1,0.2,0,0.2
	c-0.1,0.1-0.1,0.2,0,0.3c0.1,0.2,0.2,0.2,0.2,0.1s0.1-0.4,0.1-0.5c0-0.2,0-0.2,0.2-0.3c0.2-0.1,0.2-0.1,0.3-0.2s0.1-0.2,0-0.2
	C561.3,490.3,561.2,490.3,561.2,490.3"/>
<path id="Fill-386" fill="#6F8F9D" d="M561.2,490.5L561.2,490.5v-0.2V490.5z M560.9,490.5C560.8,490.6,560.8,490.6,560.9,490.5
	L560.9,490.5L560.9,490.5c-0.1,0.2,0,0.2,0,0.2c0,0.1-0.1,0.2-0.1,0.2s0,0,0,0.1c0,0,0,0.1,0,0.2c0,0,0,0,0,0.1
	c0-0.1,0.1-0.3,0.1-0.5c0-0.1,0-0.3,0.2-0.4h0.1C561.1,490.5,561,490.5,560.9,490.5z M560.5,491.4c0-0.1-0.1-0.2-0.1-0.2l0.1-0.2
	l0,0c0,0,0,0,0-0.1s0-0.1,0-0.2c0-0.2,0.2-0.2,0.2-0.3c0.2-0.2,0.3-0.2,0.4-0.2c0,0,0.1,0,0.2,0h0.1c0.1,0,0.2,0.1,0.2,0.2
	s-0.1,0.2-0.2,0.2c-0.1,0.1-0.2,0.1-0.3,0.2s-0.1,0-0.1,0.2s-0.1,0.4-0.2,0.6c0,0.1-0.2,0.2-0.2,0.2l0,0
	C560.7,491.6,560.6,491.5,560.5,491.4z"/>
<path id="Fill-387" fill="#FFFCDD" d="M560.3,490.9c0,0,0.2-0.2,0-0.2s-0.4,0.2-0.5,0.2s-0.2,0.1-0.3,0.2c0,0.2,0,0.4,0.1,0.2
	c0.1-0.1,0.2-0.2,0.3-0.2C560.1,491.1,560.2,491,560.3,490.9C560.3,491,560.3,490.9,560.3,490.9"/>
<path id="Fill-388" fill="#6F8F9D" d="M560.3,490.9L560.3,490.9L560.3,490.9L560.3,490.9z M559.8,491c-0.1,0-0.2,0.1-0.2,0.2
	C559.7,491,559.8,491,559.8,491c0.2,0,0.2-0.1,0.3-0.1l0.1-0.1C560.1,490.9,559.9,491,559.8,491z M559.3,491.2c0-0.1,0-0.1,0-0.2
	c0.1-0.2,0.3-0.3,0.4-0.3c0.1,0,0.3-0.2,0.5-0.2c0,0,0,0,0.1,0s0.2,0.2,0.2,0.2c0,0.2-0.1,0.2-0.1,0.2l0,0c0,0-0.1,0.1-0.1,0.2
	c-0.1,0.1-0.2,0.2-0.4,0.2c-0.1,0-0.2,0.1-0.2,0.2c0,0-0.1,0.1-0.2,0.1C559.3,491.4,559.3,491.4,559.3,491.2z"/>
<path id="Fill-389" fill="#FFFCDD" d="M563.1,489.4C563.1,489.4,563,489.3,563.1,489.4C562.9,489.5,563,489.5,563.1,489.4
	L563.1,489.4"/>
<path id="Fill-390" fill="#6F8F9D" d="M563,489.4L563,489.4L563,489.4L563,489.4L563,489.4z M562.8,489.5c0-0.1,0-0.1,0-0.2
	s0.1-0.2,0.2-0.2c0.2,0,0.2,0.2,0.2,0.2l-0.2,0.1l0.2-0.1l0,0v0.1c0,0,0,0.2-0.2,0.2h-0.1L562.8,489.5z"/>
<path id="Fill-391" fill="#FFFCDD" d="M563.3,489.9c0,0,0.2-0.2,0-0.2s-0.3,0-0.3,0.2c0,0.1,0,0.1,0.1,0.1
	C563.2,489.9,563.3,489.9,563.3,489.9"/>
<path id="Fill-392" fill="#6F8F9D" d="M562.9,490c-0.1-0.1-0.1-0.1-0.1-0.2v-0.1c0.1-0.2,0.2-0.2,0.4-0.2h0.1c0.1,0,0.2,0.1,0.2,0.2
	c0,0.2-0.1,0.2-0.1,0.2l-0.1-0.1l0.1,0.2c0,0-0.1,0.1-0.2,0.1c0,0,0,0-0.1,0C563,490,563,490,562.9,490"/>
<path id="Fill-393" fill="#FFFCDD" d="M562.3,489.8C562.3,489.9,562.4,489.9,562.3,489.8C562.5,489.6,562.3,489.7,562.3,489.8"/>
<path id="Fill-394" fill="#6F8F9D" d="M562.4,489.8L562.4,489.8L562.4,489.8L562.4,489.8L562.4,489.8L562.4,489.8z M562.4,489.8
	L562.4,489.8L562.4,489.8L562.4,489.8z M562.4,489.8L562.4,489.8L562.4,489.8L562.4,489.8L562.4,489.8z M562.5,489.8L562.5,489.8
	L562.5,489.8L562.5,489.8z M562.2,489.9L562.2,489.9c0-0.2,0.1-0.2,0.2-0.2c0.1,0,0.2,0.1,0.2,0.2c0,0,0,0,0,0.1s-0.1,0.2-0.2,0.2
	l0,0C562.3,490,562.2,490,562.2,489.9z"/>
<path id="Fill-395" fill="#EFEFEE" d="M565.2,483.5C565.2,483.5,565.1,483.5,565.2,483.5C565.3,483.7,565.3,483.4,565.2,483.5"/>
<path id="Fill-396" fill="#6F8F9D" d="M565.2,483.5L565.2,483.5L565.2,483.5z M565.3,483.6L565.3,483.6L565.3,483.6z M565.1,483.7
	c0,0-0.1-0.1-0.1-0.2s0.1-0.2,0.2-0.2h0.1c0.2,0,0.2,0.2,0.2,0.2c0,0.1,0,0.2-0.2,0.2S565.1,483.7,565.1,483.7z"/>
<path id="Fill-397" fill="#EFEFEE" d="M565.6,486.5C565.6,486.5,565.5,486.6,565.6,486.5c0.1,0.1,0.2,0,0.2-0.1
	C565.6,486.4,565.6,486.5,565.6,486.5"/>
<path id="Fill-398" fill="#6F8F9D" d="M565.7,486.6L565.7,486.6L565.7,486.6z M565.4,486.6c0-0.2,0.1-0.2,0.1-0.2s0.1-0.1,0.2-0.1
	s0.1,0,0.2,0.1c0.1,0,0.1,0.1,0.1,0.2c0,0.2-0.2,0.2-0.3,0.2C565.6,486.7,565.4,486.6,565.4,486.6z"/>
<path id="Fill-399" fill="#EFEFEE" d="M567.9,488.4C568,488.4,568,488.4,567.9,488.4C568,488.2,567.7,488.4,567.9,488.4"/>
<path id="Fill-400" fill="#6F8F9D" d="M567.9,488.4L567.9,488.4L567.9,488.4L567.9,488.4z M567.9,488.4L567.9,488.4L567.9,488.4
	L567.9,488.4z M567.9,488.5v-0.2V488.5c-0.1,0-0.2-0.1-0.2-0.2c0-0.2,0.1-0.2,0.2-0.2c0.1,0,0.2,0.1,0.2,0.1v0.1
	C568.1,488.5,568,488.5,567.9,488.5C568,488.5,567.9,488.5,567.9,488.5z"/>
<path id="Fill-401" fill="#EFEFEE" d="M568.8,489C568.8,489,568.8,488.9,568.8,489c-0.2-0.1-0.3,0-0.3,0.1
	C568.5,489.4,568.7,489.1,568.8,489L568.8,489"/>
<path id="Fill-402" fill="#6F8F9D" d="M568.3,489.1L568.3,489.1c0.1-0.2,0.2-0.3,0.3-0.4h0.1c0.2,0,0.2,0.2,0.2,0.2v0.1h-0.2
	l0.1,0.1c0,0-0.1,0.1-0.2,0.2l0,0l0,0l0,0l0,0c0,0,0,0-0.1,0.1c-0.1,0-0.1,0.1-0.2,0.1C568.4,489.4,568.3,489.2,568.3,489.1"/>
<path id="Fill-403" fill="#EFEFEE" d="M569.3,488.7c0.1,0,0.2,0,0.2-0.1C569.3,488.5,569.2,488.6,569.3,488.7"/>
<path id="Fill-404" fill="#6F8F9D" d="M569.4,488.6L569.4,488.6L569.4,488.6z M569.3,488.8v-0.2V488.8c-0.1,0-0.2-0.1-0.2-0.2
	c0-0.2,0.1-0.2,0.2-0.2c0.1,0,0.2,0,0.2,0.1c0,0,0.1,0.1,0.1,0.2S569.5,488.8,569.3,488.8L569.3,488.8z"/>
<path id="Fill-405" fill="#F4C8D5" d="M566.9,487.3c-0.2,0.1-0.2,0.2-0.2,0.2c0,0.2,0.1,0.2,0.2,0.2c0.2,0,0.3-0.1,0.6-0.1
	s0.2-0.1,0.2-0.2s0-0.2,0.1-0.3c0.1-0.1,0.1-0.2,0-0.2S567.1,487.2,566.9,487.3"/>
<path id="Fill-406" fill="#6F8F9D" d="M566.9,487.6L566.9,487.6c0.1,0,0.2-0.1,0.5-0.1h0.1l0,0c0,0,0,0,0-0.1s0-0.2,0.1-0.2
	c-0.2,0.1-0.5,0.2-0.7,0.2l-0.1-0.2l0.1,0.2c-0.2,0.1-0.2,0.1-0.2,0.2C566.8,487.6,566.9,487.6,566.9,487.6z M566.9,487.9
	c-0.2,0-0.4-0.1-0.4-0.3l0,0c0-0.2,0.2-0.3,0.3-0.4l0,0c0.2-0.1,0.7-0.3,0.9-0.3c0.1,0,0.2,0.1,0.2,0.2s-0.1,0.2-0.2,0.2
	c-0.1,0-0.1,0.1-0.1,0.2c0,0,0,0.1,0,0.2s-0.2,0.2-0.2,0.2h-0.1c0,0,0,0-0.1,0S567.1,487.9,566.9,487.9L566.9,487.9z"/>
<path id="Fill-407" fill="#EFEFEE" d="M566.6,486.4C566.6,486.4,566.5,486.5,566.6,486.4C566.6,486.5,566.7,486.5,566.6,486.4
	L566.6,486.4"/>
<path id="Fill-408" fill="#6F8F9D" d="M566.6,486.4L566.6,486.4L566.6,486.4L566.6,486.4z M566.6,486.5L566.6,486.5L566.6,486.5
	L566.6,486.5z M566.7,486.5L566.7,486.5L566.7,486.5L566.7,486.5z M566.5,486.6c-0.1,0-0.1-0.1-0.1-0.2s0.1-0.2,0.1-0.2
	s0.1-0.1,0.2-0.1s0.1,0,0.2,0.1c0.1,0,0.1,0.1,0.1,0.2c0,0.2-0.2,0.2-0.2,0.2C566.6,486.6,566.6,486.6,566.5,486.6z"/>
<path id="Fill-409" fill="#6F8F9D" d="M564.9,488.5L564.9,488.5L564.9,488.5L564.9,488.5z M564.8,488.5L564.8,488.5
	c-0.1,0-0.1-0.1-0.1-0.2c0-0.2,0.2-0.2,0.3-0.2s0.2,0,0.2,0.1c0.1,0.1,0.2,0.2,0.2,0.2c0,0.1-0.1,0.2-0.2,0.2
	c-0.1,0-0.2,0.1-0.2,0.1C565.1,488.6,564.9,488.6,564.8,488.5z"/>
<path id="Fill-410" fill="#EFEFEE" d="M566,488.6C566,488.6,565.9,488.6,566,488.6C566.1,488.8,566.1,488.8,566,488.6
	C566.1,488.6,566,488.6,566,488.6"/>
<path id="Fill-411" fill="#6F8F9D" d="M566.1,488.7L566.1,488.7L566.1,488.7z M566.1,488.7L566.1,488.7L566.1,488.7z M566.1,488.7
	L566.1,488.7L566.1,488.7z M566.1,488.8L566.1,488.8L566.1,488.8L566.1,488.8z M565.9,488.9c0,0-0.1-0.1-0.1-0.2
	c0.1-0.2,0.2-0.2,0.2-0.2v0.2v-0.2c0,0,0.2,0,0.2,0.2l0,0c0,0.1-0.1,0.2-0.2,0.2C566,489,565.9,488.9,565.9,488.9z"/>
<path id="Fill-412" fill="#EFEFEE" d="M566.4,489C566.4,489,566.3,489,566.4,489C566.6,489,566.6,489,566.4,489
	C566.4,488.9,566.4,489,566.4,489"/>
<path id="Fill-413" fill="#6F8F9D" d="M566.4,489L566.4,489L566.4,489L566.4,489z M566.5,489L566.5,489L566.5,489z M566.4,489.2
	c-0.1,0-0.2-0.1-0.2-0.2s0.1-0.2,0.1-0.2l0,0l0,0l0,0c0,0,0.1-0.1,0.2-0.1c0.1,0,0.1,0,0.2,0.1c0.1,0,0.1,0.1,0.1,0.2
	C566.6,489.1,566.5,489.2,566.4,489.2L566.4,489.2z"/>
<path id="Fill-414" fill="#EFEFEE" d="M566,489.1c0,0-0.1,0.1,0,0.2C566.1,489.4,566.1,489.3,566,489.1
	C566.1,489.1,566,489.1,566,489.1"/>
<path id="Fill-415" fill="#6F8F9D" d="M585.4,479.6L585.4,479.6L585.4,479.6z M585.5,479.7L585.5,479.7L585.5,479.7z M585.4,479.8
	L585.4,479.8L585.4,479.8L585.4,479.8z M585.2,479.8c0,0-0.1-0.1-0.1-0.2s0.1-0.2,0.1-0.2h0.1h0.1l-0.1,0.1l0.1-0.1
	c0,0,0.1,0,0.2,0.2c0,0,0,0,0,0.1s-0.1,0.2-0.2,0.2C585.3,479.8,585.2,479.8,585.2,479.8z M584.8,479.7L584.8,479.7L584.8,479.7
	L584.8,479.7L584.8,479.7L584.8,479.7z M584.8,479.8L584.8,479.8L584.8,479.8L584.8,479.8L584.8,479.8z M584.8,479.8L584.8,479.8
	L584.8,479.8z M584.6,479.8L584.6,479.8c0-0.2,0.2-0.2,0.2-0.2v0.2l0,0v-0.2c0,0,0.2,0,0.2,0.2c0,0,0,0,0,0.1s-0.1,0.2-0.2,0.2l0,0
	C584.7,479.8,584.6,479.8,584.6,479.8z M583.9,479.8c0,0-0.1-0.1-0.1-0.2c0.1-0.2,0.2-0.2,0.4-0.2h0.1l0,0c0.1,0,0.2,0.1,0.2,0.2
	c0,0.2-0.1,0.2-0.2,0.3c-0.1,0-0.1,0-0.2,0C584.1,479.9,583.9,479.8,583.9,479.8z M566,489.2L566,489.2L566,489.2z M566,489.1
	L566,489.1L566,489.1z M566.1,489.1L566.1,489.1L566.1,489.1z M566.1,489.1L566.1,489.1L566.1,489.1z M566,489.2L566,489.2
	L566,489.2L566,489.2L566,489.2z M566.1,489.2L566.1,489.2L566.1,489.2z M566,489.2L566,489.2L566,489.2z M565.9,489.3
	c-0.1,0-0.1-0.1-0.1-0.2c0-0.2,0.1-0.2,0.1-0.2l0,0l0,0c0,0,0.2,0,0.2,0.2c0,0.1,0,0.1,0,0.1c0,0.1-0.1,0.2-0.2,0.2
	C566,489.4,566,489.4,565.9,489.3z"/>
<path id="Fill-416" fill="#EFEFEE" d="M584.7,480c0,0-0.2,0-0.3,0.1c-0.2,0-0.4,0-0.4,0.1c-0.1,0.1,0,0.2,0.2,0.2
	c0.1,0,0.2,0,0.4,0.2c0.2,0.1,0.3,0.1,0.5,0.1c0.1,0,0.1-0.1,0.1-0.2c0-0.2-0.1-0.3-0.2-0.3C584.8,479.9,584.7,480,584.7,480"/>
<path id="Fill-417" fill="#6F8F9D" d="M584.6,480.3l0.2,0.1c0.1,0,0.1,0,0.2,0l0,0v-0.1c0-0.1,0-0.2,0-0.2h-0.1l-0.1-0.2v0.2
	c0,0-0.2,0.1-0.4,0.1c-0.1,0-0.1,0-0.2,0C584.3,480.3,584.5,480.3,584.6,480.3z M584.4,480.6c-0.1-0.1-0.2-0.1-0.3-0.1
	c-0.2,0-0.2-0.1-0.2-0.2s0-0.1,0.1-0.2c0.2-0.1,0.3-0.1,0.5-0.1s0.2,0,0.3,0c0,0,0.1,0,0.2-0.1h0.1l0,0c0.3,0.1,0.2,0.3,0.2,0.5v0.1
	c0,0.1-0.1,0.2-0.2,0.2c-0.1,0-0.2,0-0.2,0C584.6,480.7,584.5,480.7,584.4,480.6z M606.3,488.9c-0.1,0-0.3-0.1-0.5-0.2
	c-0.1-0.1-0.3-0.1-0.5-0.2c-0.3-0.2-0.3-0.7-0.5-1.6c-0.1-0.7-1-1.2-1.7-1.5s-0.7-0.9-0.7-1.1s0-0.5-0.2-1c-0.1-0.4-0.6-0.9-0.8-1.2
	c-0.2-0.2-0.2-0.4-0.2-0.7s0.1-0.5,0.1-0.7c0.1-0.3,0.2-0.5,0.3-0.7c0,0,0-0.1,0-0.2s0-0.2,0-0.2c0-0.2-0.1-0.7-0.1-1h0.2
	c0,0.2,0.1,0.9,0.1,1s0,0.2,0.1,0.3c0,0.1,0,0.2-0.1,0.3c-0.1,0.1-0.2,0.2-0.2,0.6c-0.1,0.2-0.1,0.4-0.1,0.6s0,0.4,0.2,0.5
	c0.2,0.3,0.7,0.7,0.9,1.3c0.1,0.5,0.2,0.8,0.2,1s0,0.6,0.6,0.8c0.6,0.3,1.7,0.7,1.8,1.7c0.1,0.6,0.2,1.1,0.2,1.2s0,0.1,0,0.1
	c0.2,0.1,0.4,0,0.7,0.2c0.1,0.1,0.2,0.1,0.2,0.2v-0.1c0-0.2,0-1.2-0.1-1.4c0-0.1,0-0.2,0-0.5s0-0.7,0.2-1c0.2-0.6,0.7-1.3,1-1.6
	c0.2-0.2,0.4-0.3,0.6-0.6c0.2-0.2,0.8-1.7,0.8-1.9c0.1-0.2,0.7-1.7,0.7-1.8l0,0l0,0c0-0.2,0-0.3,0-0.6c0-0.2,0-0.3,0.1-0.5l0.2,0.1
	c0,0.1,0,0.2,0,0.4s0,0.4,0,0.6l0,0l0,0l0,0c0,0.3-0.7,1.7-0.7,1.9c-0.1,0.2-0.7,1.7-0.9,1.9c-0.2,0.2-0.4,0.5-0.7,0.7
	c-0.2,0.2-0.7,1-0.9,1.5c-0.2,0.2-0.2,0.6-0.2,0.9c0,0.2,0,0.3,0,0.5s0,1.3,0.1,1.4c0,0.1,0,0.2,0,0.2
	C606.4,488.7,606.5,488.9,606.3,488.9L606.3,488.9z"/>
<path id="Fill-418" fill="#6F8F9D" d="M606.2,489.5L606.2,489.5L606.2,489.5L606.2,489.5z M606.2,489.5L606.2,489.5L606.2,489.5z
	 M606.3,489.7L606.3,489.7L606.3,489.7z M606.2,489.8L606.2,489.8L606.2,489.8L606.2,489.8z M606.1,489.8
	C606.1,489.8,606,489.7,606.1,489.8c0-0.2,0-0.2,0.1-0.2l0,0l-0.1-0.1c0-0.1,0.1-0.1,0.1-0.1l0,0l0,0c0,0,0,0,0.1,0
	c0,0,0.1,0,0.2,0.1v0.1c0,0.1-0.1,0.1-0.1,0.1l0,0v0.1v-0.1c0,0,0.1,0,0.1,0.2l0,0c0,0.1-0.1,0.1-0.2,0.1
	C606.2,489.9,606.1,489.9,606.1,489.8z"/>
<path id="Fill-419" fill="#EFEFEE" d="M598.6,478.6c-0.1-0.1-0.1,0-0.1,0.2c0,0.1,0.1,0.2,0,0.3c-0.1,0.1-0.2,0.1-0.1,0.2
	c0,0.1,0.1,0.3,0.2,0.2c0.2-0.1,0.2-0.2,0.3-0.2s0.2-0.1,0.1-0.2c0-0.1-0.2-0.2-0.2-0.2C598.7,478.8,598.6,478.7,598.6,478.6"/>
<path id="Fill-420" fill="#6F8F9D" d="M598.5,479.2c0,0,0,0.1,0.1,0.2c0.1-0.1,0.2-0.2,0.3-0.2l0,0c0-0.1-0.1-0.1-0.2-0.2l0,0
	C598.6,479,598.6,479.1,598.5,479.2C598.6,479.2,598.5,479.2,598.5,479.2L598.5,479.2z M598.2,479.3L598.2,479.3
	c0-0.2,0.1-0.2,0.2-0.3c0,0,0,0,0-0.1s0-0.1,0-0.1c0-0.1,0-0.1,0-0.2s0-0.2,0.2-0.2c0.1,0,0.1,0,0.2,0.1l-0.1,0.1l-0.1,0.1l0.1-0.1
	l0.1-0.1c0.1,0.1,0.2,0.2,0.2,0.2c0.1,0.1,0.2,0.2,0.2,0.2s0.1,0.1,0.1,0.2c0,0.2-0.1,0.2-0.2,0.2c-0.1,0-0.1,0.1-0.2,0.2
	c0,0-0.1,0.1-0.2,0.1C598.3,479.6,598.3,479.3,598.2,479.3z"/>
<path id="Fill-421" fill="#6F8F9D" d="M601,479.7c-0.1-0.1-0.1-0.1-0.1-0.2c0-0.2,0.1-0.2,0.2-0.3c0.1,0,0.1-0.1,0.2-0.1
	c0.2,0,0.2,0.2,0.2,0.2l0,0h-0.2h0.2c0,0,0,0.1-0.1,0.2s-0.1,0.2-0.2,0.2l0,0C601.1,479.8,601,479.8,601,479.7z M609.5,484.5
	L609.5,484.5c-0.2,0-0.2-0.2-0.2-0.4l0,0c0-0.2,0.2-0.2,0.2-0.2c0.1,0,0.2,0,0.2,0l-0.1,0.2l0.1-0.1c0,0,0.1,0.1,0.2,0.2v0.1
	C609.8,484.3,609.8,484.5,609.5,484.5L609.5,484.5L609.5,484.5z"/>
<path id="Fill-422" fill="#EFEFEE" d="M598.2,480.3L598.2,480.3c-0.1,0.2-0.1,0.2,0,0.2C598.3,480.4,598.3,480.4,598.2,480.3
	C598.3,480.3,598.2,480.3,598.2,480.3"/>
<path id="Fill-423" fill="#6F8F9D" d="M598.2,480.3L598.2,480.3L598.2,480.3L598.2,480.3L598.2,480.3z M598.2,480.3L598.2,480.3
	L598.2,480.3L598.2,480.3z M598.2,480.6c0,0-0.1,0-0.2-0.1c-0.1-0.1-0.1-0.1-0.1-0.2v-0.1c0-0.1,0.1-0.2,0.2-0.2c0.1,0,0.1,0,0.1,0
	l0,0c0,0,0.1,0.1,0.1,0.2C598.4,480.4,598.4,480.6,598.2,480.6L598.2,480.6z"/>
<path id="Fill-424" fill="#EFEFEE" d="M597.2,480.2C597.2,480.3,597.2,480.3,597.2,480.2C597.2,480.3,597.3,480.3,597.2,480.2
	L597.2,480.2"/>
<path id="Fill-425" fill="#6F8F9D" d="M597.2,480.3L597.2,480.3L597.2,480.3L597.2,480.3z M597.3,480.3L597.3,480.3L597.3,480.3z
	 M597.2,480.3L597.2,480.3L597.2,480.3z M597.2,480.4c-0.2-0.1-0.2-0.2-0.2-0.2s0-0.1,0.1-0.2l0,0l0.1-0.1c0.1,0,0.1,0,0.1,0
	c0.1,0.1,0.1,0.1,0.1,0.2C597.4,480.3,597.3,480.4,597.2,480.4L597.2,480.4z"/>
<path id="Fill-426" fill="#EFEFEE" d="M597.2,480.8C597.2,480.8,597.3,480.8,597.2,480.8C597.3,480.7,597.3,480.6,597.2,480.8
	L597.2,480.8"/>
<path id="Fill-427" fill="#6F8F9D" d="M597.2,480.8L597.2,480.8L597.2,480.8z M597.3,480.7L597.3,480.7L597.3,480.7z M597.2,480.8
	L597.2,480.8L597.2,480.8L597.2,480.8z M597.2,480.8L597.2,480.8L597.2,480.8L597.2,480.8L597.2,480.8L597.2,480.8L597.2,480.8z
	 M597.4,480.8L597.4,480.8L597.4,480.8L597.4,480.8z M597.3,480.9c-0.1,0-0.2,0-0.2-0.2l0,0l0,0l0,0c0,0,0,0,0-0.1s0-0.1,0-0.1
	c0-0.1,0.1-0.1,0.2-0.1c0.2,0.1,0.2,0.2,0.2,0.2s0,0,0,0.1C597.5,480.9,597.4,480.9,597.3,480.9L597.3,480.9z"/>
<path id="Fill-428" fill="#6F8F9D" d="M608.4,483l0.2-0.2l0.2,0.2l-0.2,0.2L608.4,483z M605,488.6l0.2-0.2l0.2,0.2l-0.2,0.2
	L605,488.6z"/>
<polyline id="Fill-429" fill="#6F8F9D" points="596.4,480.1 596.6,479.8 596.8,480 596.7,480.2 596.4,480.1 "/>
<polyline id="Fill-430" fill="#6F8F9D" points="595.7,478.7 595.7,478.5 596,478.5 595.9,478.8 595.7,478.7 "/>
<path id="Fill-431" fill="#56707B" d="M604.8,488.7L604.8,488.7c0,0.1-0.1,0.1-0.2,0.2l-0.1,0.2c0,0,0,0.2,0.1,0.2l0.1,0.1
	c0,0,0.2,0,0.2-0.1l0.1-0.1l0,0l0,0l0,0v0.2l-0.1,0.2l-0.2,0.1h-0.2l-0.1-0.1v-0.2l0.1-0.2v-0.1c-0.1,0-0.1,0-0.1,0
	s-0.1-0.1-0.2-0.1l-0.1-0.2v-0.2c0,0,0.1-0.2,0.2-0.2l0.2-0.1c0,0,0.2,0,0.2,0.1h-0.2c0,0-0.1,0-0.2,0c0,0-0.1,0.1-0.1,0.2v0.2
	l0.1,0.2l0.2,0.1L604.8,488.7"/>
<path id="Fill-432" fill="#56707B" d="M584.2,496.3L584.2,496.3c0-0.1,0.1-0.2,0.1-0.2V496l-0.1-0.2c0,0-0.1,0-0.2,0l-0.2,0.1v0.2
	l0,0l0,0l0,0v-0.2c0,0,0-0.2,0.1-0.2c0,0,0.1-0.1,0.2-0.1h0.2c0,0,0.1,0.1,0.2,0.1l0.1,0.2v0.2v0.1c0.1,0,0.1,0,0.1,0l0.2,0.1
	l0.1,0.2v0.2l-0.1,0.2c0,0-0.2,0.1-0.2,0.2c0,0-0.2,0.1-0.2,0l0.2-0.1c0,0,0.1-0.1,0.2-0.1l0.1-0.2v-0.2c0,0-0.1-0.1-0.1-0.2h-0.2
	L584.2,496.3"/>
<path id="Fill-433" fill="#56707B" d="M583.4,496.4L583.4,496.4c-0.1,0-0.2-0.1-0.2-0.1H583l-0.2,0.1c0,0,0,0.1,0,0.2l0.1,0.2h0.2
	l0,0l0,0l0,0H583c0,0-0.2,0-0.2-0.1c0,0-0.1-0.1-0.2-0.2v-0.2c0,0,0.1-0.1,0.1-0.2l0.2-0.1h0.2h0.1c0-0.1,0-0.1,0-0.1l0.1-0.2
	c0,0,0.2-0.1,0.2-0.2h0.2l0.2,0.1c0,0,0.1,0.2,0.2,0.2c0,0,0.1,0.2,0,0.2l-0.1,0c0,0-0.1-0.1-0.1-0.2l-0.2-0.1c0,0-0.2,0-0.2,0.1
	c0,0-0.1,0.1-0.1,0.2v0.2V496.4"/>
<path id="Fill-434" fill="#56707B" d="M583.7,497.1L583.7,497.1c0.1,0,0.2,0.1,0.2,0.1l0.2,0.1l0.2-0.1c0,0,0.1-0.1,0.1-0.2
	l-0.1-0.2l-0.2-0.1l0,0l0,0l0,0h0.2l0.2,0.1l0.1,0.2v0.2l-0.1,0.1l-0.2,0.1h-0.2H584c0,0.1,0,0.1,0,0.1s-0.1,0.1-0.1,0.2l-0.2,0.1
	h-0.2l-0.2-0.1l-0.1-0.2c0,0,0-0.2,0.1-0.2l0.1,0.2c0,0,0,0.1,0.1,0.2c0,0,0.1,0.1,0.2,0.1h0.2l0.2-0.1l0.1-0.2L583.7,497.1"/>
<path id="Fill-435" fill="#56707B" d="M540.1,502.1L540.1,502.1c-0.1,0-0.2,0.1-0.2,0.1s-0.1,0.1-0.2,0.2c0,0-0.1,0.2,0,0.2l0.1,0.1
	h0.2l0.1-0.1l0,0l0,0l0,0l-0.1,0.1c0,0-0.1,0.1-0.2,0.1h-0.2c0,0-0.1-0.1-0.2-0.1c0,0-0.1-0.1-0.1-0.2v-0.2l0.1-0.2l0.1-0.1
	l-0.1-0.1c0,0-0.1-0.1-0.1-0.2v-0.2l0.1-0.2l0.2-0.1h0.2c0,0,0.2,0,0.2,0.2h-0.2c0,0-0.1,0-0.2,0l-0.2,0.1l-0.1,0.2v0.2
	c0,0,0.1,0.1,0.2,0.2H540.1"/>
<path id="Fill-436" fill="#56707B" d="M541.8,500.9L541.8,500.9c0-0.1,0.1-0.2,0.1-0.2v-0.2c0,0-0.1-0.2-0.2-0.2c0,0-0.1,0-0.2,0
	c0,0-0.1,0.1-0.2,0.1v0.2l0,0l0,0l0,0v-0.2v-0.2c0,0,0.1-0.2,0.2-0.2c0,0,0.1-0.1,0.2,0c0,0,0.1,0.1,0.2,0.1c0,0,0.1,0.1,0.1,0.2
	v0.2v0.1c0.1,0,0.1,0,0.1,0s0.2,0,0.2,0.1l0.2,0.2l0.1,0.2c0,0,0,0.2-0.1,0.2c0,0-0.1,0.2-0.2,0.2c0,0-0.2,0.1-0.2,0l0.2-0.1
	l0.1-0.1c0,0,0.1-0.2,0-0.2l-0.1-0.2c0,0-0.1-0.1-0.2-0.1L541.8,500.9L541.8,500.9"/>
<path id="Fill-437" fill="#56707B" d="M539,503.1L539,503.1c-0.1,0-0.2-0.1-0.2-0.1h-0.2c0,0-0.2,0.1-0.2,0.2c0,0,0,0.1,0,0.2
	c0,0,0.1,0.1,0.2,0.2h0.2l0,0l0,0l0,0h-0.2h-0.2l-0.2-0.1c0,0-0.1-0.1-0.1-0.2c0,0,0-0.1,0.1-0.2c0,0,0.1-0.1,0.2-0.1h0.2h0.1
	c0-0.1,0-0.1,0-0.1s0-0.2,0.1-0.2l0.2-0.2l0.2-0.1h0.2c0,0,0.2,0.1,0.2,0.2c0,0,0.1,0.2,0,0.2l-0.1-0.2l-0.1-0.1h-0.2l-0.2,0.1
	c0,0-0.1,0.1-0.1,0.2L539,503.1L539,503.1"/>
<path id="Fill-438" fill="#56707B" d="M538,504L538,504c-0.1,0-0.2-0.1-0.2-0.1h-0.2l-0.2,0.1c0,0,0,0.1,0,0.2l0.1,0.2h0.2l0,0l0,0
	l0,0h-0.2c0,0-0.2,0-0.2-0.1c0,0-0.1-0.1-0.2-0.2c0,0,0-0.1,0-0.2c0,0,0.1-0.1,0.1-0.2c0,0,0.1-0.1,0.2-0.1h0.2h0.1
	c0-0.1,0-0.1,0-0.1l0.1-0.2c0,0,0.2-0.1,0.2-0.2h0.2l0.2,0.1c0,0,0.2,0.1,0.2,0.2c0,0,0.1,0.2,0,0.2l-0.1-0.2c0,0-0.1-0.1-0.1-0.2
	l-0.2-0.1c0,0-0.2,0-0.2,0.1c0,0-0.1,0.1-0.1,0.2v0.2L538,504"/>
<path id="Fill-439" fill="#56707B" d="M554.4,521.5L554.4,521.5c-0.1,0-0.2-0.1-0.2-0.1H554l-0.2,0.1c0,0-0.1,0.1,0,0.2l0.1,0.2h0.2
	l0,0l0,0l0,0H554c0,0-0.2,0-0.2-0.1c0,0-0.1-0.1-0.1-0.2v-0.2l0.1-0.1l0.2-0.1h0.2h0.1c0-0.1,0-0.1,0-0.1l0.1-0.2l0.2-0.1h0.2
	l0.2,0.1c0,0,0.1,0.2,0.2,0.2c0,0,0.1,0.2,0,0.2l-0.1-0.2c0,0,0-0.1-0.1-0.2l-0.2-0.1h-0.2c0,0-0.1,0.1-0.2,0.1v0.2V521.5"/>
<path id="Fill-440" fill="#56707B" d="M553.8,518.5L553.8,518.5c-0.1,0-0.1-0.2-0.1-0.2s-0.1-0.1-0.2-0.1h-0.2l-0.1,0.1v0.2l0.1,0.1
	l0,0l0,0l0,0l-0.2-0.1c0,0-0.1-0.1-0.2-0.1l-0.1-0.2c0,0,0-0.2,0.1-0.2l0.1-0.1h0.2l0.2,0.1l0.1,0.1c0-0.1,0-0.1,0.1-0.1
	c0,0,0.1-0.1,0.2-0.1h0.2l0.2,0.1c0,0,0.2,0.1,0.2,0.2l0.1,0.2c0,0,0,0.2-0.1,0.2v-0.2c0,0,0-0.1,0-0.2c0,0-0.1-0.1-0.2-0.2
	l-0.2-0.1l-0.2,0.1l-0.1,0.2L553.8,518.5"/>
<path id="Fill-441" fill="#56707B" d="M554.9,523.5L554.9,523.5c-0.1,0-0.1-0.1-0.2-0.2l-0.2-0.1c0,0-0.2,0-0.2,0.1l-0.1,0.1
	c0,0,0,0.2,0.1,0.2l0.1,0.1l0,0l0,0l0,0h-0.2l-0.2-0.1l-0.1-0.2v-0.2l0.1-0.1h0.2l0.2,0.1h0.1c0-0.1,0-0.1,0-0.1s0.1-0.1,0.1-0.2
	l0.2-0.1h0.2c0,0,0.2,0.1,0.2,0.2l0.1,0.2c0,0,0,0.2-0.1,0.2v-0.2c0,0,0-0.1,0-0.2c0,0-0.1-0.1-0.2-0.1h-0.2l-0.2,0.1l-0.1,0.2
	L554.9,523.5"/>
<path id="Fill-442" fill="#56707B" d="M557.9,518.8L557.9,518.8c0-0.1-0.1-0.2-0.1-0.2s-0.1-0.1-0.1-0.2l-0.2-0.1l-0.1,0.1v0.2
	l0.1,0.1l0,0l0,0l0,0l-0.1-0.1c0,0-0.1-0.1-0.1-0.2v-0.2l0.1-0.1c0,0,0.1-0.1,0.2-0.1c0,0,0.2,0,0.2,0.1c0,0,0.1,0.1,0.2,0.2v0.1
	l0.1-0.1c0,0,0.1-0.1,0.2-0.1c0,0,0.2,0,0.2,0.1c0,0,0.2,0.1,0.2,0.2l0.1,0.2v0.2c0,0-0.1,0.2-0.2,0.2l0.1-0.2c0,0,0-0.1,0-0.2
	l-0.1-0.2l-0.2-0.1h-0.2l-0.2,0.1L557.9,518.8"/>
<path id="Fill-443" fill="#56707B" d="M558.8,519.2L558.8,519.2c0-0.1,0.1-0.2,0.1-0.2l0.1-0.2l-0.1-0.2c0,0-0.1-0.1-0.2-0.1
	l-0.2,0.1l-0.1,0.2l0,0l0,0l0,0v-0.2l0.1-0.2l0.2-0.1h0.2l0.1,0.1l0.1,0.2v0.2v0.1c0.1,0,0.1,0,0.1,0s0.1,0.1,0.2,0.1l0.1,0.2v0.2
	l-0.1,0.2l-0.2,0.1c0,0-0.2,0-0.2-0.1l0.2-0.1c0,0,0.1,0,0.2-0.1c0,0,0.1-0.1,0.1-0.2V519l-0.1-0.2l-0.2-0.1L558.8,519.2"/>
<path id="Fill-444" fill="#56707B" d="M560.9,521.1L560.9,521.1c0,0.1-0.1,0.2-0.1,0.2v0.2c0,0,0.1,0.2,0.2,0.2c0,0,0.1,0,0.2,0
	c0,0,0.1-0.1,0.2-0.1v-0.2l0,0l0,0l0,0v0.2v0.2c0,0-0.1,0.2-0.2,0.2c0,0-0.1,0-0.2,0c0,0-0.1-0.1-0.2-0.1c0,0-0.1-0.1-0.1-0.2v-0.2
	v-0.1c-0.1,0-0.1,0-0.1,0s-0.2,0-0.2-0.1l-0.2-0.2l-0.1-0.2c0,0,0-0.2,0.1-0.2c0,0,0.1-0.2,0.2-0.2c0,0,0.2-0.1,0.2,0l-0.2,0.1
	l-0.1,0.1c0,0-0.1,0.2,0,0.2l0.1,0.2c0,0,0.1,0.1,0.2,0.1L560.9,521.1L560.9,521.1"/>
<path id="Fill-445" fill="#56707B" d="M559.6,524.8L559.6,524.8c0.1,0,0.2,0.1,0.2,0.1l0.2,0.1l0.2-0.1c0,0,0.1-0.1,0.1-0.2
	l-0.1-0.2l-0.2-0.1l0,0l0,0l0,0h0.2l0.2,0.1l0.1,0.2v0.2l-0.1,0.1l-0.2,0.1H560h-0.1c0,0.1,0,0.1,0,0.1s-0.1,0.1-0.1,0.2l-0.2,0.1
	h-0.2l-0.2-0.1l-0.1-0.2c0,0,0-0.2,0.1-0.2l0.1,0.2c0,0,0,0.1,0.1,0.2c0,0,0.1,0.1,0.2,0.1h0.2c0,0,0.1-0.1,0.2-0.1l0.1-0.2
	L559.6,524.8"/>
<path id="Fill-446" fill="#56707B" d="M559.4,524.5L559.4,524.5c-0.1,0-0.1-0.1-0.2-0.2l-0.2-0.1c0,0-0.2,0-0.2,0.1
	c0,0-0.1,0.1-0.1,0.2c0,0,0,0.2,0.1,0.2l0.1,0.1l0,0l0,0l0,0h-0.2l-0.2-0.1l-0.1-0.2v-0.2l0.1-0.1h0.2c0,0,0.2,0,0.2,0.1h0.1
	c0-0.1,0-0.1,0-0.1s0.1-0.1,0.1-0.2l0.2-0.1h0.2c0,0,0.2,0.1,0.2,0.2l0.1,0.2c0,0,0,0.2-0.1,0.2l-0.1-0.2c0,0,0-0.1,0-0.2
	c0,0-0.1-0.1-0.2-0.1h-0.2l-0.2,0.1l-0.1,0.2L559.4,524.5"/>
<path id="Fill-447" fill="#56707B" d="M583.5,561.9L583.5,561.9c0.1,0,0.1,0.1,0.2,0.2l0.2,0.1h0.2l0.1-0.1c0,0,0-0.2-0.1-0.2
	l-0.1-0.1l0,0l0,0l0,0h0.2c0,0,0.1,0.1,0.2,0.1l0.1,0.2v0.2l-0.1,0.1h-0.2l-0.2-0.1h-0.1c0,0.1,0,0.1-0.1,0.1c0,0-0.1,0.1-0.1,0.2
	l-0.2,0.1c0,0-0.2,0-0.2-0.1c0,0-0.2-0.1-0.2-0.2l-0.1-0.2c0,0,0-0.2,0.1-0.2v0.2c0,0,0,0.1,0,0.2c0,0,0.1,0.1,0.2,0.1h0.2l0.2-0.1
	l0.1-0.2L583.5,561.9"/>
<path id="Fill-448" fill="#56707B" d="M583,561.7L583,561.7c-0.1,0-0.1-0.2-0.1-0.2s-0.1-0.1-0.2-0.1h-0.2l-0.1,0.1v0.2l0.1,0.1l0,0
	l0,0l0,0l-0.1-0.1c0,0-0.1-0.1-0.2-0.1l-0.1-0.2c0,0,0-0.1,0.1-0.2c0,0,0.1-0.1,0.2-0.1h0.2l0.2,0.1l0.1,0.1c0-0.1,0-0.1,0.1-0.1
	c0,0,0.1-0.1,0.2-0.1h0.2l0.2,0.1c0,0,0.2,0.1,0.2,0.2l0.1,0.2c0,0,0,0.2-0.1,0.2v-0.2c0,0,0-0.1,0-0.2c0,0-0.1-0.1-0.2-0.2
	l-0.2-0.1l-0.2,0.1l-0.1,0.2v0.2"/>
<path id="Fill-449" fill="#56707B" d="M581.8,567L581.8,567c0.1,0,0.2,0,0.2,0s0.2,0,0.2-0.1l0.2-0.2c0,0,0-0.1,0-0.2
	c0,0-0.1-0.1-0.2-0.1H582l0,0l0,0l0,0l0.1-0.1h0.2l0.2,0.1c0,0,0.1,0.1,0.1,0.2v0.2c0,0-0.1,0.1-0.1,0.2l-0.2,0.1h-0.1
	c0,0.1,0,0.1,0,0.1v0.2c0,0-0.1,0.2-0.2,0.2l-0.2,0.1h-0.2l-0.2-0.1c0,0-0.1-0.1-0.1-0.2c0,0,0.2,0.1,0.2,0.2l0.1,0.1h0.2l0.2-0.1
	l0.1-0.2C582,567.2,582,567.1,581.8,567L581.8,567"/>
<path id="Fill-450" fill="#56707B" d="M580.1,564.4L580.1,564.4c-0.1,0-0.1-0.1-0.2-0.2l-0.2-0.1c0,0-0.2,0-0.2,0.1l-0.1,0.1
	c0,0,0,0.2,0.1,0.2l0.1,0.1l0,0l0,0l0,0h-0.2l-0.2-0.1l-0.1-0.2v-0.2l0.1-0.1h0.2l0.2,0.1h0.1c0-0.1,0-0.1,0.1-0.1
	c0,0,0.1-0.1,0.1-0.2l0.2-0.1h0.2c0,0,0.2,0.1,0.2,0.2l0.1,0.2c0,0,0,0.2-0.1,0.2v-0.2c0,0,0-0.1,0-0.2c0,0-0.1-0.1-0.2-0.1h-0.2
	l-0.2,0.1l-0.1,0.2L580.1,564.4"/>
<path id="Fill-451" fill="#56707B" d="M584.7,565.8L584.7,565.8c0,0.1-0.2,0.1-0.2,0.1s-0.1,0.1-0.1,0.2v0.2l0.1,0.1h0.2l0.1-0.1
	l0,0l0,0l0,0l-0.1,0.1c0,0-0.1,0.1-0.1,0.2l-0.2,0.1c0,0-0.1,0-0.2-0.1l-0.1-0.1v-0.2l0.1-0.2l0.1-0.1c-0.1,0-0.1,0-0.1-0.1
	c0,0-0.1-0.1-0.1-0.2v-0.2l0.1-0.2c0,0,0.1-0.2,0.2-0.2l0.2-0.1c0,0,0.2,0,0.2,0.1h-0.2c0,0-0.1,0-0.2,0c0,0-0.1,0.1-0.2,0.2
	l-0.1,0.2l0.1,0.2l0.2,0.1H584.7"/>
<path id="Fill-452" fill="#56707B" d="M586.1,563.6L586.1,563.6c0.1,0,0.2,0,0.2,0l0.2-0.1l0.1-0.2c0,0,0-0.1-0.1-0.2l-0.2-0.1
	l-0.2,0.1l0,0l0,0l0,0l0.1-0.1l0.2-0.1c0,0,0.2,0,0.2,0.1l0.1,0.1v0.2c0,0-0.1,0.1-0.1,0.2l-0.2,0.1h-0.1l0.1,0.1v0.2l-0.1,0.2
	l-0.2,0.2l-0.2,0.1l-0.2-0.1c0,0-0.2-0.1-0.1-0.2l0.2,0.1c0,0,0.1,0.1,0.2,0.1h0.2c0,0,0.2-0.1,0.2-0.2v-0.2l-0.1-0.2L586.1,563.6"
	/>
<path id="Fill-453" fill="#56707B" d="M585.7,563.5L585.7,563.5c-0.1,0-0.2,0-0.2,0l-0.2,0.1l-0.1,0.2c0,0,0,0.1,0.1,0.2l0.2,0.1
	l0.2-0.1l0,0l0,0l0,0l-0.1,0.1l-0.2,0.1c0,0-0.2,0-0.2-0.1l-0.1-0.1v-0.2c0,0,0.1-0.1,0.1-0.2l0.2-0.1h0.1l-0.1-0.1v-0.2l0.1-0.2
	l0.2-0.2l0.2-0.1l0.2,0.1c0,0,0.1,0.1,0.1,0.2l-0.2-0.1c0,0-0.1-0.1-0.2-0.1h-0.2c0,0-0.2,0.1-0.2,0.2v0.2l0.1,0.2L585.7,563.5"/>
<path id="Fill-454" fill="#56707B" d="M569.7,568L569.7,568c0,0.1-0.1,0.1-0.2,0.2l-0.1,0.2v0.2l0.1,0.1c0,0,0.2,0,0.2-0.1l0.1-0.1
	l0,0l0,0l0,0v0.2c0,0-0.1,0.1-0.1,0.2l-0.2,0.1h-0.2l-0.1-0.1v-0.2l0.1-0.2v-0.1c-0.1,0-0.1,0-0.1-0.1c0,0-0.1-0.1-0.2-0.2l-0.1-0.2
	c0,0,0-0.2,0.1-0.2c0,0,0.1-0.2,0.2-0.2l0.2-0.1c0,0,0.2,0,0.2,0.1h-0.2c0,0-0.1,0-0.2,0c0,0-0.1,0.1-0.1,0.2v0.2l0.1,0.2l0.2,0.1
	L569.7,568"/>
<path id="Fill-455" fill="#56707B" d="M568.3,567.4L568.3,567.4c0,0.1-0.1,0.2-0.1,0.2v0.2c0,0,0.1,0.2,0.2,0.2c0,0,0.1,0,0.2,0
	c0,0,0.1-0.1,0.2-0.2v-0.2l0,0l0,0l0,0v0.2v0.2l-0.1,0.2c0,0-0.1,0.1-0.2,0.1c0,0-0.1,0-0.2-0.1c0,0-0.1-0.1-0.1-0.2v-0.2v-0.1
	c-0.1,0-0.1,0-0.1,0H568l-0.2-0.2l-0.1-0.2c0-0.1,0-0.2,0-0.2s0.1-0.2,0.2-0.2c0,0,0.2-0.1,0.2,0l-0.2,0.1l-0.1,0.1v0.2l0.1,0.2
	c0,0,0.1,0.1,0.2,0.1h0.2V567.4"/>
<path id="Fill-456" fill="#56707B" d="M566.4,566.6L566.4,566.6c0.1,0,0.2,0.1,0.2,0.1h0.2l0.2-0.1c0,0,0-0.1,0-0.2l-0.1-0.2h-0.2
	l0,0l0,0l0,0h0.2h0.2c0,0,0.1,0.1,0.2,0.2v0.2c0,0-0.1,0.1-0.1,0.2c0,0-0.1,0.1-0.2,0.1h-0.2h-0.1c0,0.1,0,0.1,0,0.1l-0.1,0.2
	l-0.2,0.2l-0.2,0.1l-0.2-0.1c0,0-0.2-0.1-0.2-0.2c0,0-0.1-0.2,0-0.2l0.1,0.2l0.1,0.1l0.2,0.1c0,0,0.2,0,0.2-0.1c0,0,0.1-0.1,0.1-0.2
	v-0.2L566.4,566.6"/>
<path id="Fill-457" fill="#56707B" d="M572.4,567.2L572.4,567.2c-0.1,0-0.2-0.1-0.2-0.1H572c0,0-0.2,0.1-0.2,0.2c0,0,0,0.1,0,0.2
	c0,0,0.1,0.1,0.1,0.2h0.2l0,0l0,0l0,0H572h-0.2c0,0-0.2-0.1-0.2-0.2c0,0,0-0.1,0-0.2c0,0,0.1-0.1,0.1-0.2c0,0,0.1-0.1,0.2-0.1h0.2
	h0.1c0-0.1,0-0.1,0-0.1s0-0.2,0.1-0.2l0.2-0.2l0.2-0.1c0,0,0.2,0,0.2,0.1c0,0,0.2,0.1,0.2,0.2c0,0,0.1,0.2,0,0.2l-0.1-0.2l-0.1-0.1
	c0,0-0.2-0.1-0.2,0l-0.2,0.1c0,0-0.1,0.1-0.1,0.2V567.2L572.4,567.2"/>
<path id="Fill-458" fill="#56707B" d="M572.9,571.6L572.9,571.6c0.1,0,0.2,0,0.2,0l0.2-0.1l0.1-0.2c0,0,0-0.1,0-0.2l-0.2-0.1H573
	l0,0l0,0l0,0l0.1-0.1h0.2l0.2,0.1l0.1,0.1v0.2c0,0-0.1,0.1-0.1,0.2l-0.2,0.1h-0.1c0,0.1,0,0.1,0.1,0.1v0.2c0,0-0.1,0.2-0.2,0.2
	c0,0-0.2,0.1-0.2,0.2h-0.2l-0.2-0.1c0,0-0.1-0.1-0.1-0.2l0.2,0.1l0.1,0.1h0.2c0,0,0.2-0.1,0.2-0.2l0.1-0.2L572.9,571.6L572.9,571.6"
	/>
<path id="Fill-459" fill="#56707B" d="M572.2,571.6L572.2,571.6c-0.1,0-0.2,0-0.2,0s-0.2,0-0.2,0.1l-0.2,0.2c0,0,0,0.1,0,0.2
	c0,0,0.1,0.1,0.2,0.1h0.2l0,0l0,0l0,0l-0.1,0.1h-0.2l-0.2-0.1c0,0-0.1-0.1-0.1-0.2v-0.2c0,0,0.1-0.1,0.1-0.2l0.2-0.1h0.1
	c0-0.1,0-0.1,0-0.1v-0.2c0,0,0.1-0.2,0.2-0.2l0.2-0.1h0.2l0.2,0.1c0,0,0.1,0.1,0.1,0.2c0,0-0.2-0.1-0.2-0.2l-0.1-0.1h-0.2L572,571
	l-0.1,0.2C572,571.4,572,571.6,572.2,571.6L572.2,571.6"/>
<path id="Fill-460" fill="#56707B" d="M569.2,571.8L569.2,571.8c0.1,0,0.2,0,0.2,0h0.2l0.2-0.2c0,0,0-0.1,0-0.2c0,0-0.1-0.1-0.2-0.1
	h-0.2l0,0l0,0l0,0l0.2-0.1h0.2l0.2,0.1c0,0,0.1,0.1,0.1,0.2v0.2c0,0-0.1,0.1-0.2,0.1l-0.2,0.1h-0.1c0,0.1,0,0.1,0,0.1v0.2l-0.2,0.2
	l-0.2,0.1H569l-0.2-0.1c0,0-0.1-0.1-0.1-0.2l0.2,0.2l0.1,0.1h0.2l0.2-0.1l0.1-0.2L569.2,571.8L569.2,571.8"/>
<path id="Fill-461" fill="#56707B" d="M568,572.6L568,572.6c0,0.1-0.1,0.2-0.1,0.2v0.2l0.1,0.2c0,0,0.1,0,0.2,0l0.2-0.1v-0.2l0,0
	l0,0l0,0v0.2c0,0,0,0.2-0.1,0.2c0,0-0.1,0.1-0.2,0.1h-0.2c0,0-0.1-0.1-0.2-0.1l-0.1-0.2v-0.2v-0.1c-0.1,0-0.1,0-0.1,0l-0.2-0.1
	c0,0-0.1-0.2-0.2-0.2v-0.2l0.1-0.2c0,0,0.2-0.1,0.2-0.2c0,0,0.2-0.1,0.2,0l-0.2,0.1c0,0-0.1,0.1-0.2,0.1l-0.1,0.2v0.2
	c0,0,0.1,0.1,0.2,0.2h0.2L568,572.6"/>
<path id="Fill-462" fill="#56707B" d="M575.7,570.2L575.7,570.2c0-0.1-0.1-0.2-0.1-0.2s-0.1-0.1-0.1-0.2l-0.2-0.1l-0.1,0.1v0.2
	l0.1,0.1l0,0l0,0l0,0l-0.1-0.1c0,0-0.1-0.1-0.1-0.2v-0.2l0.1-0.1c0,0,0.1-0.1,0.2-0.1c0,0,0.2,0,0.2,0.1c0,0,0.1,0.1,0.2,0.2v0.1
	l0.1-0.1l0.2-0.1c0,0,0.2,0,0.2,0.1c0,0,0.2,0.1,0.2,0.2l0.1,0.2v0.2c0,0-0.1,0.2-0.2,0.2c0,0,0-0.2,0.1-0.2c0,0,0-0.1,0-0.2
	l-0.1-0.2l-0.2-0.1H576l-0.2,0.1L575.7,570.2"/>
<path id="Fill-463" fill="#56707B" d="M577.1,564.1L577.1,564.1c0,0.1-0.1,0.1-0.2,0.2l-0.1,0.2v0.2l0.1,0.1c0,0,0.2,0,0.2-0.1
	l0.1-0.1l0,0l0,0l0,0v0.2c0,0-0.1,0.1-0.1,0.2l-0.2,0.1h-0.2l-0.1-0.1v-0.2l0.1-0.2v-0.1c-0.1,0-0.1,0-0.1-0.1c0,0-0.1-0.1-0.2-0.1
	l-0.1-0.2c0,0,0-0.2,0.1-0.2c0,0,0.1-0.2,0.2-0.2l0.2-0.1c0,0,0.2,0,0.2,0.1h-0.2c0,0-0.1,0-0.2,0c0,0-0.1,0.1-0.1,0.2v0.2l0.1,0.2
	l0.2,0.1L577.1,564.1"/>
<path id="Fill-464" fill="#56707B" d="M579.6,561.8L579.6,561.8c-0.1,0-0.2,0-0.2,0l-0.2,0.1l-0.1,0.2c0,0,0.1,0.1,0.1,0.2l0.2,0.1
	l0.2-0.1l0,0l0,0l0,0l-0.1,0.1l-0.2,0.1h-0.2l-0.1-0.1c0,0,0-0.1,0-0.2l0.1-0.2c0,0,0.1-0.1,0.2-0.1h0.1l-0.1-0.1l-0.1-0.2l0.1-0.2
	c0,0,0.1-0.2,0.2-0.2l0.2-0.1h0.2c0,0,0.2,0.1,0.2,0.2l-0.2-0.1c0,0-0.1-0.1-0.2-0.1c0,0-0.2,0-0.2,0.1c0,0-0.1,0.2-0.2,0.2v0.2
	L579.6,561.8L579.6,561.8"/>
<path id="Fill-465" fill="#56707B" d="M562.3,562.5L562.3,562.5c0.1,0,0.2,0.1,0.2,0.1h0.2l0.2-0.1c0,0,0-0.1,0-0.2l-0.1-0.2h-0.2
	l0,0l0,0l0,0h0.2c0,0,0.2,0,0.2,0.1c0,0,0.1,0.1,0.2,0.2v0.2c0,0-0.1,0.1-0.1,0.2l-0.2,0.1h-0.2h-0.1c0,0.1,0,0.1,0,0.1l-0.1,0.2
	c0,0-0.2,0.1-0.2,0.2h-0.2l-0.2-0.1c0,0-0.1-0.2-0.2-0.2c0,0-0.1-0.2,0-0.2l0.1,0.2c0,0,0.1,0.1,0.1,0.2l0.2,0.1c0,0,0.2,0,0.2-0.1
	c0,0,0.1-0.1,0.1-0.2v-0.2L562.3,562.5"/>
<path id="Fill-466" fill="#56707B" d="M561.6,567.3L561.6,567.3c0-0.1-0.1-0.2-0.1-0.2s-0.1-0.1-0.1-0.2l-0.2-0.1l-0.1,0.1v0.2
	l0.1,0.1l0,0l0,0l0,0l-0.1-0.1c0,0-0.1-0.1-0.1-0.2v-0.2l0.1-0.1c0,0,0.1-0.1,0.2-0.1c0,0,0.2,0,0.2,0.1c0,0,0.1,0.1,0.2,0.2
	l0.1,0.1l0.1-0.1l0.2-0.1c0,0,0.2,0,0.2,0.1c0,0,0.2,0.1,0.2,0.2l0.1,0.2v0.2c0,0-0.1,0.2-0.2,0.2c0,0,0-0.2,0.1-0.2
	c0,0,0-0.1,0-0.2l-0.1-0.2l-0.2-0.1H562l-0.2,0.1L561.6,567.3"/>
<path id="Fill-467" fill="#56707B" d="M570.5,554.1L570.5,554.1c0-0.1,0.1-0.1,0.2-0.2l0.1-0.2v-0.2l-0.1-0.1c0,0-0.2,0-0.2,0.1
	l-0.1,0.1l0,0l0,0l0,0v-0.2c0,0,0.1-0.1,0.1-0.2l0.2-0.1h0.2l0.1,0.1v0.2l-0.1,0.2v0.1c0.1,0,0.1,0,0.1,0.1c0,0,0.1,0.1,0.1,0.2
	l0.1,0.2c0,0,0,0.2-0.1,0.2c0,0-0.1,0.2-0.2,0.2l-0.2,0.1c0,0-0.2,0-0.2-0.1h0.2c0,0,0.1,0,0.2,0c0,0,0.1-0.1,0.1-0.2v-0.2l-0.1-0.2
	l-0.2-0.1L570.5,554.1"/>
<path id="Fill-468" fill="#56707B" d="M569.8,554.1L569.8,554.1c0,0.1-0.2,0.1-0.2,0.1s-0.1,0.1-0.1,0.2v0.2l0.1,0.1h0.2l0.1-0.1
	l0,0l0,0l0,0l-0.1,0.2c0,0-0.1,0.1-0.1,0.2l-0.2,0.1c0,0-0.2,0-0.2-0.1l-0.1-0.1v-0.2l0.1-0.2l0.1-0.1c-0.1,0-0.1,0-0.1-0.1
	c0,0-0.1-0.1-0.1-0.2v-0.2l0.1-0.2c0,0,0.1-0.2,0.2-0.2l0.2-0.1c0,0,0.2,0,0.2,0.1h-0.2c0,0-0.1,0-0.2,0c0,0-0.1,0.1-0.2,0.2
	l-0.1,0.2l0.1,0.2l0.2,0.1h0.3"/>
<path id="Fill-469" fill="#56707B" d="M568.7,555L568.7,555c0.1,0,0.2,0,0.2,0l0.2-0.1l0.1-0.2c0,0,0-0.1,0-0.2l-0.2-0.1h-0.2l0,0
	l0,0l0,0l0.1-0.1h0.2l0.2,0.1l0.1,0.1v0.2c0,0-0.1,0.1-0.1,0.2L569,555l0,0c0,0.1,0,0.1,0.1,0.1v0.2c0,0-0.1,0.2-0.2,0.2
	c0,0-0.2,0.1-0.2,0.2h-0.2l-0.2-0.1c0,0-0.1-0.1-0.1-0.2l0.2,0.1l0.1,0.1h0.2c0,0,0.2-0.1,0.2-0.2l0.1-0.2L568.7,555L568.7,555"/>
<path id="Fill-470" fill="#56707B" d="M579.2,556L579.2,556c0.1,0,0.2,0.1,0.2,0.1h0.2c0,0,0.2-0.1,0.2-0.2c0,0,0-0.1,0-0.2
	c0,0-0.1-0.1-0.1-0.2h-0.2l0,0l0,0l0,0h0.2h0.2c0,0,0.2,0.1,0.2,0.2c0,0,0.1,0.1,0.1,0.2c0,0-0.1,0.1-0.1,0.2c0,0-0.1,0.1-0.2,0.1
	h-0.2h-0.1c0,0.1,0,0.1,0,0.1s0,0.2-0.1,0.2l-0.2,0.2l-0.2,0.1c0,0-0.2,0-0.2-0.1c0,0-0.2-0.1-0.2-0.2c0,0-0.1-0.2,0-0.2l0.1,0.2
	l0.1,0.1h0.2l0.2-0.1c0,0,0.1-0.1,0.1-0.2L579.2,556L579.2,556"/>
<path id="Fill-471" fill="#56707B" d="M578.7,557.3L578.7,557.3c-0.1,0-0.1-0.2-0.1-0.2s-0.1-0.1-0.2-0.1h-0.2l-0.1,0.1v0.2l0.1,0.1
	l0,0l0,0l0,0l-0.1-0.1c0,0-0.1-0.1-0.2-0.2c0,0-0.1-0.2,0-0.2c0,0,0-0.1,0.1-0.2c0,0,0.1-0.1,0.2-0.1h0.2l0.2,0.1l0.1,0.1l0.1-0.1
	c0,0,0.1-0.1,0.2-0.1h0.2l0.2,0.1c0,0,0.1,0.2,0.2,0.2l0.1,0.2c0,0,0,0.2-0.1,0.2v-0.2c0,0,0-0.1,0-0.2c0,0-0.1-0.1-0.1-0.2
	l-0.2-0.1c0,0-0.2,0-0.2,0.1l-0.1,0.2L578.7,557.3"/>
<path id="Fill-472" fill="#56707B" d="M577.5,561.1L577.5,561.1c-0.1,0-0.1-0.2-0.1-0.2s-0.1-0.1-0.2-0.1H577l-0.1,0.1v0.2l0.1,0.1
	l0,0l0,0l0,0l-0.1-0.1c0,0-0.1-0.1-0.2-0.2c0,0-0.1-0.2,0-0.2c0,0,0-0.1,0.1-0.2c0,0,0.1-0.1,0.2-0.1h0.2l0.2,0.1l0.1,0.1l0.1-0.1
	c0,0,0.1-0.1,0.2-0.1h0.2l0.2,0.1c0,0,0.1,0.2,0.2,0.2s0.1,0.2,0.1,0.2s0,0.2-0.1,0.2V561c0,0,0-0.1,0-0.2c0,0-0.1-0.1-0.1-0.2
	l-0.2-0.1c0,0-0.2,0-0.2,0.1l-0.1,0.2L577.5,561.1"/>
<path id="Fill-473" fill="#56707B" d="M578.8,557.5L578.8,557.5l0.1,0.2c0,0,0.1,0.1,0.2,0.1h0.2l0.1-0.1v-0.2l-0.1-0.1l0,0l0,0l0,0
	l0.1,0.1c0,0,0.1,0.1,0.1,0.2v0.2c0,0-0.1,0.1-0.1,0.2c0,0-0.1,0.1-0.2,0.1H579l-0.2-0.1l-0.1-0.1l-0.1,0.1c0,0-0.1,0.1-0.2,0.1
	h-0.2l-0.2-0.1c0,0-0.1-0.2-0.2-0.2v-0.2c0,0,0-0.2,0.2-0.2v0.2c0,0,0,0.1,0,0.2l0.1,0.2l0.2,0.1h0.2c0,0,0.1-0.1,0.1-0.2
	L578.8,557.5"/>
<path id="Fill-474" fill="#56707B" d="M579.3,555.4L579.3,555.4c0-0.1,0-0.2-0.1-0.2l-0.1-0.2l-0.2-0.1c0,0-0.1,0.1-0.2,0.1
	l-0.1,0.2l0.1,0.2l0,0l0,0l0,0l-0.1-0.1l-0.1-0.2V555l0.1-0.1h0.2l0.2,0.1c0,0,0.1,0.1,0.1,0.2v0.1l0.1-0.1l0.2-0.1l0.2,0.1
	c0,0,0.2,0.1,0.2,0.2l0.1,0.2v0.2c0,0-0.1,0.2-0.2,0.2l0.1-0.2c0,0,0.1-0.1,0.1-0.2c0,0,0-0.2-0.1-0.2c0,0-0.2-0.1-0.2-0.2h-0.2
	L579.3,555.4L579.3,555.4"/>
<path id="Fill-475" fill="#56707B" d="M570.7,561.1L570.7,561.1c0.1,0,0.2-0.1,0.2-0.1s0.1-0.1,0.2-0.1l0.1-0.2l-0.1-0.1h-0.2
	l-0.1,0.1l0,0l0,0l0,0l0.1-0.1c0,0,0.1-0.1,0.2-0.1h0.2l0.1,0.1c0,0,0.1,0.1,0.1,0.2c0,0,0,0.2-0.1,0.2c0,0-0.1,0.1-0.2,0.2H571
	l0.1,0.1l0.1,0.2c0,0,0,0.2-0.1,0.2c0,0-0.1,0.2-0.2,0.2l-0.2,0.1h-0.2c0,0-0.2-0.1-0.2-0.2c0,0,0.2,0,0.2,0.1c0,0,0.1,0,0.2,0
	l0.2-0.1l0.1-0.2v-0.2l-0.1-0.2L570.7,561.1"/>
<path id="Fill-476" fill="#56707B" d="M570.2,561L570.2,561c-0.1,0.1-0.2,0.1-0.2,0.1s-0.1,0.1-0.1,0.2v0.2l0.1,0.1h0.2l0.1-0.1l0,0
	l0,0l0,0l-0.1,0.1c0,0-0.1,0.1-0.2,0.1h-0.2c0,0-0.1-0.1-0.2-0.1c0,0-0.1-0.1-0.1-0.2v-0.2l0.1-0.2l0.1-0.1l-0.1-0.1
	c0,0-0.1-0.1-0.1-0.2v-0.2l0.1-0.2c0,0,0.2-0.1,0.2-0.2h0.2c0,0,0.2,0,0.2,0.2H570c0,0-0.1,0-0.2,0l-0.2,0.1l-0.1,0.2v0.2
	c0,0,0.1,0.1,0.2,0.1L570.2,561"/>
<path id="Fill-477" fill="#56707B" d="M571.6,561.1L571.6,561.1c0,0.1-0.2,0.1-0.2,0.1s-0.1,0.1-0.1,0.2v0.2l0.1,0.1h0.2l0.1-0.1
	l0,0l0,0l0,0l-0.1,0.2c0,0-0.1,0.1-0.1,0.2l-0.2,0.1c0,0-0.2,0-0.2-0.1l-0.1-0.1v-0.2l0.1-0.2l0.1-0.1c-0.1,0-0.1,0-0.1-0.1
	c0,0-0.1-0.1-0.1-0.2v-0.2l0.1-0.2c0,0,0.1-0.2,0.2-0.2l0.2-0.1c0,0,0.2,0,0.2,0.1h-0.2c0,0-0.1,0-0.2,0c0,0-0.1,0.1-0.1,0.2
	l-0.1,0.2l0.1,0.2L571.6,561.1L571.6,561.1"/>
<path id="Fill-478" fill="#56707B" d="M572,561L572,561c0-0.1,0.1-0.1,0.2-0.2l0.1-0.2c0,0,0-0.2-0.1-0.2l-0.1-0.1
	c0,0-0.2,0-0.2,0.1l-0.1,0.1l0,0l0,0l0,0v-0.2c0,0,0.1-0.1,0.1-0.2l0.2-0.1h0.2l0.1,0.1v0.2l-0.1,0.2v0.1c0.1,0,0.1,0,0.1,0.1
	c0,0,0.1,0.1,0.2,0.1l0.1,0.2v0.2c0,0-0.1,0.2-0.2,0.2l-0.2,0.1c0,0-0.2,0-0.2-0.1h0.2c0,0,0.1,0,0.2,0c0,0,0.1-0.1,0.1-0.2V561
	l-0.1-0.2l-0.2-0.1L572,561"/>
<path id="Fill-479" fill="#56707B" d="M567.5,560.2L567.5,560.2c0-0.1,0.2-0.1,0.2-0.1s0.1-0.1,0.1-0.2v-0.2l-0.1-0.1h-0.2l-0.1,0.1
	l0,0l0,0l0,0l0.1-0.1c0,0,0.1-0.1,0.2-0.2l0.2-0.1c0,0,0.1,0,0.2,0.1c0,0,0.1,0.1,0.1,0.2v0.2l-0.1,0.2l-0.1,0.1l0.1,0.1
	c0,0,0.1,0.1,0.1,0.2v0.2l-0.1,0.2c0,0-0.2,0.1-0.2,0.2l-0.2,0.1c0,0-0.2,0-0.2-0.1h0.2c0,0,0.1,0,0.2,0c0,0,0.1-0.1,0.2-0.1
	l0.1-0.2c0,0,0-0.2-0.1-0.2l-0.2-0.1L567.5,560.2"/>
<path id="Fill-480" fill="#56707B" d="M570.2,559.5L570.2,559.5c0,0.1-0.1,0.2-0.1,0.2v0.2l0.1,0.2c0,0,0.1,0.1,0.2,0l0.2-0.1
	l0.1-0.2l0,0l0,0l0,0v0.2c0,0,0,0.2-0.1,0.2c0,0-0.1,0.1-0.2,0.1h-0.2l-0.1-0.1L570,560v-0.2v-0.1c-0.1,0-0.1,0-0.1,0l-0.2-0.1
	l-0.1-0.2v-0.2l0.1-0.2c0,0,0.2-0.1,0.2-0.2c0,0,0.2-0.1,0.2,0l-0.2,0.1c0,0-0.1,0.1-0.2,0.1l-0.1,0.2v0.2c0,0,0.1,0.1,0.1,0.2h0.2
	h0.3"/>
<path id="Fill-481" fill="#56707B" d="M570.7,559.4L570.7,559.4c0-0.1,0.1-0.1,0.2-0.2l0.1-0.2v-0.2l-0.1-0.1c0,0-0.2,0-0.2,0.1
	l-0.1,0.1l0,0l0,0l0,0v-0.2c0,0,0.1-0.1,0.1-0.2l0.2-0.1h0.2l0.1,0.1v0.2l-0.1,0.2v0.1c0.1,0,0.1,0,0.1,0.1c0,0,0.1,0.1,0.2,0.1
	l0.1,0.2c0,0,0,0.2-0.1,0.2c0,0-0.1,0.2-0.2,0.2l-0.2,0.1c0,0-0.2,0-0.2-0.1h0.2c0,0,0.1,0,0.2,0c0,0,0.1-0.1,0.1-0.2v-0.2l-0.1-0.2
	l-0.2-0.1L570.7,559.4"/>
<path id="Fill-482" fill="#56707B" d="M570.8,558.2L570.8,558.2c0.1,0,0.2,0,0.2,0s0.2,0,0.2-0.1l0.2-0.2c0,0,0-0.1,0-0.2
	c0,0-0.1-0.1-0.2-0.1H571l0,0l0,0l0,0l0.2-0.1h0.2l0.2,0.1c0,0,0.1,0.1,0.1,0.2v0.2c0,0-0.1,0.1-0.1,0.2l-0.2,0.1h-0.1
	c0,0.1,0,0.1,0,0.1v0.2c0,0-0.1,0.2-0.2,0.2l-0.2,0.1h-0.2l-0.2-0.1c0,0-0.1-0.1-0.1-0.2c0,0,0.2,0.1,0.2,0.2l0.1,0.1h0.2l0.2-0.1
	l0.1-0.2c0,0,0-0.2-0.1-0.2L570.8,558.2"/>
<path id="Fill-483" fill="#56707B" d="M570.8,556.5L570.8,556.5c0,0.1,0.1,0.2,0.1,0.2s0.1,0.1,0.1,0.2l0.2,0.1l0.1-0.1v-0.2
	l-0.1-0.1l0,0l0,0l0,0l0.1,0.1c0,0,0.1,0.1,0.1,0.2v0.2l-0.1,0.1c0,0-0.1,0-0.2,0c0,0-0.2,0-0.2-0.1c0,0-0.1-0.1-0.2-0.2v-0.1
	l-0.1,0.1l-0.2,0.1c0,0-0.2,0-0.2-0.1c0,0-0.2-0.1-0.2-0.2l-0.1-0.2v-0.2c0,0,0.1-0.2,0.2-0.2l-0.1,0.2c0,0,0,0.1,0,0.2l0.1,0.2
	l0.2,0.1h0.2L570.8,556.5L570.8,556.5"/>
<path id="Fill-484" fill="#56707B" d="M571.9,556L571.9,556c-0.1,0-0.2,0-0.2,0l-0.2,0.1l-0.1,0.2c0,0,0,0.1,0,0.2l0.2,0.1h0.2l0,0
	l0,0l0,0l-0.1,0.1h-0.2l-0.2-0.1l-0.1-0.1v-0.2c0,0,0.1-0.1,0.1-0.2l0.2-0.1h0.1c0,0,0-0.1-0.1-0.1v-0.2l0.1-0.2
	c0,0,0.2-0.1,0.2-0.2h0.2l0.2,0.1c0,0,0.1,0.1,0.1,0.2l-0.2-0.1l-0.1-0.1h-0.2c0,0-0.2,0.1-0.2,0.2l-0.1,0.2L571.9,556L571.9,556"/>
<path id="Fill-485" fill="#56707B" d="M573.7,555.1L573.7,555.1c0.1,0,0.2,0,0.2,0l0.2-0.1l0.1-0.2c0,0,0-0.1-0.1-0.2l-0.2-0.1
	l-0.2,0.1l0,0l0,0l0,0l0.1-0.1l0.2-0.1c0,0,0.2,0,0.2,0.1l0.1,0.1v0.2l-0.1,0.2l-0.2,0.1h-0.1l0.1,0.1v0.2l-0.1,0.2l-0.2,0.2
	l-0.2,0.1c0,0-0.2,0-0.2-0.1c0,0-0.2-0.1-0.1-0.2l0.2,0.1c0,0,0.1,0.1,0.2,0.1c0,0,0.2,0,0.2-0.1c0,0,0.2-0.1,0.2-0.2v-0.2
	L573.7,555.1L573.7,555.1"/>
<path id="Fill-486" fill="#56707B" d="M574.5,554.1L574.5,554.1c0.1,0,0.2,0.1,0.2,0.1h0.2c0,0,0.2-0.1,0.2-0.2c0,0,0-0.1,0-0.2
	c0,0-0.1-0.1-0.2-0.2h-0.2l0,0l0,0l0,0h0.2h0.2l0.2,0.1c0,0,0.1,0.1,0.1,0.2c0,0,0,0.1-0.1,0.2c0,0-0.1,0.1-0.2,0.1h-0.2h-0.1
	c0,0.1,0,0.1,0,0.1v0.2l-0.2,0.2l-0.2,0.1h-0.2c0,0-0.2-0.1-0.2-0.2c0,0-0.1-0.1,0-0.2l0.1,0.2l0.1,0.1h0.2l0.2-0.1
	c0,0,0.1-0.1,0.1-0.2v-0.3H574.5"/>
<path id="Fill-487" fill="#56707B" d="M574.3,553.8L574.3,553.8c-0.1,0-0.2-0.1-0.2-0.1h-0.2c0,0-0.2,0.1-0.2,0.2c0,0,0,0.1,0,0.2
	c0,0,0.1,0.1,0.1,0.2h0.2l0,0l0,0l0,0h-0.2h-0.2c0,0-0.2-0.1-0.2-0.2c0,0-0.1-0.1,0-0.2c0,0,0.1-0.1,0.1-0.2c0,0,0.1-0.1,0.2-0.1
	h0.2h0.1c0-0.1,0-0.1,0-0.1s0-0.2,0.1-0.2l0.2-0.2l0.2-0.1c0,0,0.2,0,0.2,0.1c0,0,0.2,0.1,0.2,0.2c0,0,0.1,0.2,0,0.2l-0.1-0.2
	l-0.1-0.1h-0.2l-0.2,0.1c0,0-0.1,0.1-0.1,0.2L574.3,553.8L574.3,553.8"/>
<path id="Fill-488" fill="#56707B" d="M573.1,553.6L573.1,553.6c0-0.1,0-0.2,0-0.2l-0.1-0.2l-0.2-0.1c0,0-0.1,0-0.2,0.1l-0.1,0.2
	l0.1,0.2l0,0l0,0l0,0l-0.1-0.1l-0.1-0.2c0,0,0-0.2,0.1-0.2l0.1-0.1h0.2l0.2,0.1l0.1,0.2v0.1l0.1-0.1h0.2l0.2,0.1l0.2,0.2l0.1,0.2
	c0,0,0,0.2-0.1,0.2c0,0-0.1,0.2-0.2,0.1l0.1-0.2c0,0,0.1-0.1,0.1-0.2c0,0,0-0.2-0.1-0.2c0,0-0.1-0.2-0.2-0.2h-0.2L573.1,553.6
	L573.1,553.6"/>
<path id="Fill-489" fill="#56707B" d="M569.6,558.5L569.6,558.5c0.1,0,0.2,0,0.2,0l0.2-0.1l0.1-0.2c0,0,0-0.1-0.1-0.2l-0.2-0.1
	l-0.2,0.1l0,0l0,0l0,0l0.1-0.1l0.2-0.1c0,0,0.2,0,0.2,0.1l0.1,0.1v0.2l-0.1,0.2l-0.2,0.1h-0.1l0.1,0.1v0.2l-0.1,0.2l-0.2,0.2
	l-0.2,0.1c0,0-0.2,0-0.2-0.1c0,0-0.2-0.1-0.1-0.2l0.2,0.1c0,0,0.1,0.1,0.2,0.1c0,0,0.2,0,0.2-0.1c0,0,0.2-0.1,0.2-0.2v-0.2
	L569.6,558.5L569.6,558.5"/>
<path id="Fill-490" fill="#56707B" d="M570.6,551.7L570.6,551.7c0-0.1,0.1-0.1,0.1-0.2l0.1-0.2c0,0,0-0.2-0.1-0.2
	c0,0-0.1-0.1-0.2-0.1l-0.2,0.1l-0.1,0.1l0,0l0,0l0,0V551l0.1-0.2l0.2-0.1h0.2l0.1,0.1v0.2c0,0,0,0.2-0.1,0.2v0.1c0.1,0,0.1,0,0.1,0
	s0.1,0.1,0.2,0.1l0.1,0.2v0.2L571,552l-0.2,0.1c0,0-0.2,0-0.2-0.1l0.2-0.1c0,0,0.1,0,0.2,0c0,0,0.1-0.1,0.1-0.2v-0.2l-0.1-0.2
	l-0.2-0.1L570.6,551.7"/>
<path id="Fill-491" fill="#56707B" d="M570.3,552L570.3,552c0,0.1-0.1,0.2-0.1,0.2v0.2l0.1,0.2c0,0,0.1,0.1,0.2,0l0.2-0.1l0.1-0.2
	l0,0l0,0l0,0v0.2c0,0,0,0.2-0.1,0.2c0,0-0.1,0.1-0.2,0.1h-0.2l-0.1-0.1l-0.1-0.2v-0.2v-0.1c-0.1,0-0.1,0-0.1,0l-0.2-0.1l-0.1-0.2
	v-0.2l0.1-0.2c0,0,0.2-0.1,0.2-0.2c0,0,0.2-0.1,0.2,0l-0.2,0.1c0,0-0.1,0.1-0.2,0.1l-0.1,0.2v0.2c0,0,0.1,0.1,0.1,0.2h0.2L570.3,552
	"/>
<path id="Fill-492" fill="#56707B" d="M558.8,566.6L558.8,566.6c0,0.1,0,0.2,0,0.2l0.1,0.2l0.2,0.1c0,0,0.1,0,0.2-0.1l0.1-0.2v-0.2
	l0,0l0,0l0,0l0.1,0.1l0.1,0.2c0,0,0,0.2-0.1,0.2l-0.1,0.1h-0.2c0,0-0.1-0.1-0.2-0.1l-0.1-0.2v-0.1c-0.1,0-0.1,0.1-0.1,0.1h-0.2
	l-0.2-0.1l-0.2-0.2c0,0-0.1-0.2,0-0.2l0.1-0.2c0,0,0.1-0.1,0.2-0.1l-0.1,0.2c0,0-0.1,0.1-0.1,0.2v0.2c0,0,0.1,0.2,0.2,0.2h0.2
	L558.8,566.6L558.8,566.6"/>
<path id="Fill-493" fill="#56707B" d="M560.2,567.6L560.2,567.6c0-0.1-0.1-0.2-0.1-0.2s-0.1-0.1-0.1-0.2c0-0.1-0.2-0.1-0.2,0
	l-0.1,0.1v0.2l0.1,0.1l0,0l0,0l0,0l-0.1-0.1c0,0-0.1-0.1-0.1-0.2v-0.2c0,0,0.1-0.1,0.1-0.2c0,0,0.1-0.1,0.2-0.1c0,0,0.2,0,0.2,0.1
	c0,0,0.1,0.1,0.2,0.2l0.1,0.1l0.1-0.1c0,0,0.1-0.1,0.2-0.1h0.2l0.2,0.1l0.1,0.2v0.2c0,0-0.1,0.2-0.2,0.2c0,0,0-0.2,0.1-0.2
	c0,0,0-0.1,0-0.2l-0.1-0.2l-0.2-0.1h-0.2c0,0-0.2,0.1-0.2,0.2L560.2,567.6"/>
<path id="Fill-494" fill="#56707B" d="M556.3,568.4L556.3,568.4c-0.1,0-0.1-0.1-0.2-0.2l-0.2-0.1c0,0-0.2,0-0.2,0.1
	c0,0-0.1,0.1-0.1,0.2c0,0,0,0.2,0.1,0.2l0.1,0.1l0,0l0,0l0,0h-0.2l-0.2-0.1l-0.1-0.2v-0.2l0.1-0.1h0.2c0,0,0.2,0,0.2,0.1h0.1
	c0-0.1,0-0.1,0-0.1s0.1-0.1,0.1-0.2l0.2-0.1h0.2c0,0,0.2,0.1,0.2,0.2l0.1,0.2c0,0,0,0.2-0.1,0.2c0,0-0.1-0.2,0-0.2c0,0,0-0.1,0-0.2
	c0,0-0.1-0.1-0.2-0.1h-0.2L556,568l-0.1,0.2L556.3,568.4"/>
<path id="Fill-495" fill="#56707B" d="M557.8,567.4L557.8,567.4c0,0.1-0.1,0.2-0.1,0.2s-0.1,0.2,0,0.2s0.1,0.2,0.1,0.2
	s0.1,0.1,0.2,0.1l0.2-0.1l0.1-0.2l0,0l0,0l0,0v0.2l-0.1,0.2l-0.2,0.1h-0.2l-0.1-0.1l-0.1-0.2v-0.2v-0.1c-0.1,0-0.1,0-0.1,0l-0.2-0.1
	l-0.1-0.2v-0.2l0.1-0.2l0.2-0.1c0,0,0.2-0.1,0.2,0l-0.2,0.1c0,0-0.1,0-0.2,0.1l-0.1,0.2v0.2c0,0,0.1,0.1,0.1,0.2c0,0,0.2,0.1,0.2,0
	L557.8,567.4"/>
<path id="Fill-496" fill="#56707B" d="M554.5,568.2L554.5,568.2c0.1,0,0.2,0,0.2,0s0.2,0,0.2-0.1l0.2-0.2c0,0,0-0.1,0-0.2
	c0,0-0.1-0.1-0.2-0.1h-0.2l0,0l0,0l0,0l0.1-0.1h0.2l0.2,0.1c0,0,0.1,0.1,0.1,0.2v0.2l-0.1,0.1l-0.2,0.1h-0.1c0,0.1,0,0.1,0,0.1v0.2
	c0,0-0.1,0.2-0.2,0.2l-0.2,0.1h-0.2c-0.1,0-0.2-0.1-0.2-0.1s-0.1-0.1-0.1-0.2c0,0,0.2,0.1,0.2,0.2l0.1,0.1h0.2l0.2-0.1l0.1-0.2
	C554.7,568.4,554.7,568.2,554.5,568.2L554.5,568.2"/>
<path id="Fill-497" fill="#56707B" d="M563.9,571.7L563.9,571.7c0.1,0,0.2,0.1,0.2,0.1h0.2c0,0,0.2-0.1,0.2-0.2c0,0,0-0.1,0-0.2
	c0,0-0.1-0.1-0.2-0.2h-0.2l0,0l0,0l0,0h0.2h0.2l0.2,0.1c0,0,0.1,0.1,0.1,0.2c0,0,0,0.1-0.1,0.2c0,0-0.1,0.1-0.2,0.1h-0.2h-0.1
	c0,0.1,0,0.1,0,0.1s0,0.2-0.1,0.2l-0.2,0.2l-0.2,0.1h-0.2c0,0-0.2-0.1-0.2-0.2c0,0-0.1-0.2,0-0.2l0.1,0.2l0.1,0.1h0.2l0.2-0.1
	c0,0,0.1-0.1,0.1-0.2L563.9,571.7L563.9,571.7"/>
<path id="Fill-498" fill="#56707B" d="M564.6,570.9L564.6,570.9c-0.1,0-0.2,0-0.2,0l-0.2,0.1l-0.1,0.2c0,0,0,0.1,0,0.2l0.2,0.1h0.2
	l0,0l0,0l0,0l-0.1,0.1l-0.2,0.1l-0.2-0.1l-0.1-0.1v-0.2c0,0,0.1-0.1,0.1-0.2l0.2-0.1h0.1c0-0.1,0-0.1-0.1-0.1v-0.2l0.1-0.2l0.2-0.2
	h0.2l0.2,0.1c0,0,0.1,0.1,0.1,0.2l-0.2-0.1c0,0-0.1-0.1-0.2-0.1h-0.2c0,0-0.2,0.1-0.2,0.2l-0.1,0.2l0.1,0.2h0.4"/>
<path id="Fill-499" fill="#56707B" d="M562.2,574L562.2,574c0.1,0,0.2,0.1,0.2,0.1h0.2c0,0,0.2-0.1,0.2-0.2c0,0,0-0.1,0-0.2
	c0,0-0.1-0.1-0.1-0.2h-0.2l0,0l0,0l0,0h0.2h0.2c0,0,0.2,0.1,0.2,0.2c0,0,0,0.1,0,0.2c0,0-0.1,0.1-0.1,0.2c0,0-0.1,0.1-0.2,0.1h-0.2
	h-0.1c0,0.1,0,0.1,0,0.1s0,0.2-0.1,0.2l-0.2,0.2l-0.2,0.1c0,0-0.2,0-0.2-0.1c0,0-0.2-0.1-0.2-0.2c0,0-0.1-0.2,0-0.2l0.1,0.2l0.1,0.1
	c0,0,0.2,0.1,0.2,0l0.2-0.1c0,0,0.1-0.1,0.1-0.2L562.2,574L562.2,574"/>
<path id="Fill-500" fill="#56707B" d="M561.7,574L561.7,574c-0.1,0-0.2,0-0.2-0.1h-0.2c0,0-0.2,0.1-0.2,0.2c0,0,0,0.1,0,0.2
	c0,0,0.1,0.1,0.2,0.1h0.2l0,0l0,0l0,0h-0.2h-0.2l-0.2-0.1c0,0-0.1-0.1-0.1-0.2c0,0,0-0.1,0.1-0.2c0,0,0.1-0.1,0.2-0.1h0.2h0.1
	c0-0.1,0-0.1,0-0.1v-0.2l0.2-0.2l0.2-0.1h0.2c0,0,0.2,0.1,0.2,0.2c0,0,0.1,0.1,0.1,0.2c0,0-0.1-0.2-0.2-0.2l-0.1-0.1h-0.2l-0.2,0.1
	l-0.1,0.2L561.7,574L561.7,574"/>
<path id="Fill-501" fill="#56707B" d="M560.3,587.9L560.3,587.9c0.1,0,0.2,0.1,0.2,0.1h0.2c0,0,0.2-0.1,0.2-0.2c0,0,0-0.1,0-0.2
	c0,0-0.1-0.1-0.2-0.2h-0.2l0,0l0,0l0,0h0.2h0.2l0.2,0.1c0,0,0.1,0.1,0.1,0.2c0,0,0,0.1-0.1,0.2c0,0-0.1,0.1-0.2,0.1h-0.2h-0.1
	c0,0.1,0,0.1,0,0.1s0,0.2-0.1,0.2l-0.2,0.2l-0.2,0.1h-0.2c0,0-0.2-0.1-0.2-0.2c0,0-0.1-0.2,0-0.2l0.1,0.2l0.1,0.1h0.2l0.2-0.1
	c0,0,0.1-0.1,0.1-0.2L560.3,587.9L560.3,587.9"/>
<path id="Fill-502" fill="#56707B" d="M559.8,586.2L559.8,586.2c-0.1,0.1-0.2,0.1-0.2,0.1s-0.1,0.1-0.1,0.2v0.2l0.1,0.1h0.2l0.1-0.1
	l0,0l0,0l0,0l-0.1,0.1c0,0-0.1,0.1-0.2,0.1h-0.2c0,0-0.1-0.1-0.2-0.1c0,0-0.1-0.1-0.1-0.2v-0.2l0.1-0.2l0.1-0.1l-0.1-0.1
	c0,0-0.1-0.1-0.1-0.2v-0.2l0.1-0.2l0.2-0.1h0.2c0,0,0.2,0,0.2,0.2h-0.2c0,0-0.1,0-0.2,0l-0.2,0.1l-0.1,0.2v0.2c0,0,0.1,0.1,0.2,0.1
	L559.8,586.2"/>
<path id="Fill-503" fill="#56707B" d="M560.1,586.1L560.1,586.1c0-0.1,0.2-0.1,0.2-0.1s0.1-0.1,0.1-0.2v-0.2l-0.1-0.1h-0.2l-0.1,0.1
	l0,0l0,0l0,0l0.1-0.1c0,0,0.1-0.1,0.2-0.1h0.2c0,0,0.1,0.1,0.2,0.1c0,0,0.1,0.1,0.1,0.2v0.2l-0.1,0.2l-0.1,0.1l0.1,0.1
	c0,0,0.1,0.1,0.1,0.2v0.2l-0.1,0.2c0,0-0.2,0.1-0.2,0.2h-0.2c0,0-0.2,0-0.2-0.1h0.2c0,0,0.1,0,0.2,0c0.1,0,0.1-0.1,0.2-0.1l0.1-0.2
	c0,0,0-0.2-0.1-0.2c0,0-0.1-0.1-0.2-0.1L560.1,586.1"/>
<path id="Fill-504" fill="#56707B" d="M568.3,574.5L568.3,574.5c0.1,0,0.2,0.1,0.2,0.1h0.2c0,0,0.2-0.1,0.2-0.2c0,0,0-0.1,0-0.2
	c0,0-0.1-0.1-0.2-0.2h-0.2l0,0l0,0l0,0h0.2h0.2l0.2,0.1c0,0,0.1,0.1,0.1,0.2c0,0,0,0.1-0.1,0.2c0,0-0.1,0.1-0.2,0.1h-0.2h-0.1
	c0,0.1,0,0.1,0,0.1v0.2l-0.2,0.2l-0.2,0.1H568c0,0-0.2-0.1-0.2-0.2c0,0-0.1-0.2,0-0.2l0.1,0.2l0.1,0.1h0.2l0.2-0.1
	c0,0,0.1-0.1,0.1-0.2v-0.3H568.3"/>
<path id="Fill-505" fill="#56707B" d="M567.4,576L567.4,576c0,0.1,0,0.2,0,0.2l0.1,0.2l0.2,0.1c0,0,0.1,0,0.2,0l0.1-0.2v-0.2l0,0
	l0,0l0,0l0.1,0.1v0.2l-0.1,0.2l-0.1,0.1h-0.2c0,0-0.1-0.1-0.2-0.1l-0.1-0.2v-0.1c-0.1,0-0.1,0-0.1,0.1h-0.2c0,0-0.2-0.1-0.2-0.2
	c0,0-0.1-0.2-0.2-0.2v-0.2l0.1-0.2c0,0,0.1-0.1,0.2-0.1l-0.1,0.2l-0.1,0.1v0.2c0,0,0.1,0.2,0.2,0.2l0.2,0.1L567.4,576L567.4,576"/>
<path id="Fill-506" fill="#56707B" d="M566.1,578.6L566.1,578.6c0,0.1,0,0.2,0,0.2l0.1,0.2l0.2,0.1c0,0,0.1,0,0.2,0l0.1-0.2v-0.2
	l0,0l0,0l0,0l0.1,0.1l0.1,0.2l-0.1,0.2l-0.1,0.1h-0.2c0,0-0.1-0.1-0.2-0.1l-0.1-0.2v-0.1c0,0-0.1,0-0.1,0.1h-0.2l-0.2-0.1l-0.2-0.2
	v-0.2l0.1-0.2c0,0,0.1-0.1,0.2-0.1l-0.1,0.2c0,0-0.1,0.1-0.1,0.2v0.2c0,0,0.1,0.2,0.2,0.2l0.2,0.1l0.2-0.1v-0.4"/>
<path id="Fill-507" fill="#56707B" d="M570,562.4L570,562.4c0,0.1-0.2,0.1-0.2,0.1s-0.1,0.1-0.1,0.2v0.2l0.1,0.1h0.2l0.1-0.1l0,0
	l0,0l0,0L570,563c0,0-0.1,0.1-0.2,0.2c0,0-0.2,0.1-0.2,0c0,0-0.1,0-0.2-0.1c0,0-0.1-0.1-0.1-0.2v-0.2l0.1-0.2l0.1-0.1
	c-0.1,0-0.1-0.1-0.1-0.1s-0.1-0.1-0.1-0.2V562l0.1-0.2c0,0,0.2-0.1,0.2-0.2l0.2-0.1c0,0,0.2,0,0.2,0.1l0,0c0,0-0.1,0-0.2,0
	c0,0-0.1,0.1-0.2,0.1l-0.1,0.2c0,0,0,0.2,0.1,0.2l0.2,0.1L570,562.4"/>
<path id="Fill-508" fill="#56707B" d="M570.4,562.4L570.4,562.4c0-0.1,0.2-0.1,0.2-0.1s0.1-0.1,0.1-0.2v-0.2l-0.1-0.1h-0.2l-0.1,0.1
	l0,0l0,0l0,0l0.1-0.1c0,0,0.1-0.1,0.2-0.1c0,0,0.2-0.1,0.2,0c0,0,0.1,0,0.2,0.1c0,0,0.1,0.1,0.1,0.2v0.2l-0.1,0.2l-0.1,0.1
	c0.1,0,0.1,0.1,0.1,0.1s0.1,0.1,0.1,0.2v0.2l-0.1,0.2c0,0-0.2,0.1-0.2,0.2l-0.2,0.1c0,0-0.2,0-0.2-0.1h0.2c0,0,0.1,0,0.2,0
	c0,0,0.1-0.1,0.2-0.1l0.1-0.2c0,0,0-0.2-0.1-0.2c0,0-0.1-0.1-0.2-0.1L570.4,562.4"/>
<path id="Fill-509" fill="#56707B" d="M564.1,582.1L564.1,582.1c-0.1,0-0.2-0.1-0.2-0.1h-0.2l-0.2,0.1c0,0-0.1,0.1-0.1,0.2l0.1,0.2
	l0.2,0.1l0,0l0,0l0,0h-0.2l-0.2-0.1l-0.1-0.2v-0.2l0.1-0.1l0.2-0.1h0.2h0.1c0-0.1,0-0.1,0-0.1l0.1-0.2l0.2-0.1h0.2
	c0.1,0,0.2,0.1,0.2,0.1s0.1,0.2,0.2,0.2c0,0,0.1,0.2,0,0.2l-0.1-0.2c0,0,0-0.1-0.1-0.2l-0.2-0.1h-0.2c0,0-0.1,0.1-0.2,0.1
	c0,0-0.1,0.2,0,0.2L564.1,582.1"/>
<path id="Fill-510" fill="#56707B" d="M564,582.6L564,582.6c0.1,0,0.2,0.1,0.2,0.1l0.2,0.1l0.2-0.1c0,0,0.1-0.1,0.1-0.2l-0.1-0.2
	l-0.2-0.1l0,0l0,0l0,0h0.2l0.2,0.1l0.1,0.2v0.2l-0.1,0.1l-0.2,0.1c0,0-0.2,0-0.2-0.1h-0.1c0,0.1,0,0.1,0,0.1s-0.1,0.1-0.1,0.2
	l-0.2,0.1h-0.2l-0.2-0.1l-0.1-0.2c0,0,0-0.2,0.1-0.2l0.1,0.2c0,0,0,0.1,0.1,0.2c0,0,0.1,0.1,0.2,0.1h0.2l0.2-0.1l0.1-0.2L564,582.6"
	/>
<path id="Fill-511" fill="#56707B" d="M589.9,529.5L589.9,529.5c0-0.1,0.1-0.1,0.2-0.2l0.1-0.2c0,0,0-0.2-0.1-0.2l-0.1-0.1
	c0,0-0.2,0-0.2,0.1l-0.1,0.1l0,0l0,0l0,0v-0.2l0.1-0.2l0.2-0.1h0.2l0.1,0.1v0.2l-0.1,0.2v0.1c0.1,0,0.1,0,0.1,0s0.1,0.1,0.2,0.1
	l0.1,0.2v0.2c0,0-0.1,0.2-0.2,0.2l-0.2,0.1c0,0-0.2,0-0.2-0.1h0.2c0,0,0.1,0,0.2,0c0,0,0.1-0.1,0.1-0.2v-0.2l-0.1-0.2l-0.2-0.1
	L589.9,529.5"/>
<path id="Fill-512" fill="#56707B" d="M589.8,529.5L589.8,529.5c0,0.1-0.1,0.1-0.2,0.2l-0.1,0.2c0,0,0,0.2,0.1,0.2l0.1,0.1
	c0,0,0.2,0,0.2-0.1l0.1-0.1l0,0l0,0l0,0v0.2l-0.1,0.2l-0.2,0.1h-0.2l-0.1-0.1v-0.2l0.1-0.2v-0.1c-0.1,0-0.1,0-0.1,0
	s-0.1-0.1-0.2-0.1l-0.1-0.2v-0.2c0,0,0.1-0.2,0.2-0.2l0.2-0.1c0,0,0.2,0,0.2,0.1h-0.2c0,0-0.1,0-0.2,0c0,0-0.1,0.1-0.1,0.2v0.2
	l0.1,0.2l0.2,0.1L589.8,529.5"/>
<path id="Fill-513" fill="#56707B" d="M554.9,523.6L554.9,523.6c0.1,0,0.1,0.1,0.2,0.2l0.2,0.1c0,0,0.2,0,0.2-0.1l0.1-0.1
	c0,0,0-0.2-0.1-0.2l-0.1-0.1l0,0l0,0l0,0h0.2c0,0,0.1,0.1,0.2,0.1l0.1,0.2v0.2l-0.1,0.1h-0.2l-0.2-0.1h-0.1c0,0.1,0,0.1-0.1,0.1
	c0,0-0.1,0.1-0.1,0.2l-0.2,0.1h-0.2c0,0-0.2-0.1-0.2-0.2l-0.1-0.2c0,0,0-0.2,0.1-0.2v0.2c0,0,0,0.1,0,0.2c0,0,0.1,0.1,0.2,0.1h0.2
	l0.2-0.1l0.1-0.2L554.9,523.6"/>
<path id="Fill-514" fill="#56707B" d="M556.9,522.7L556.9,522.7c0.1,0,0.1,0.2,0.1,0.2s0.1,0.1,0.2,0.1h0.2l0.1-0.1v-0.2l-0.1-0.1
	l0,0l0,0l0,0l0.1,0.1c0,0,0.1,0.1,0.1,0.2v0.2c0,0-0.1,0.1-0.1,0.2c0,0-0.1,0.1-0.2,0.1h-0.2l-0.2-0.1l-0.1-0.1l-0.1,0.1
	c0,0-0.1,0.1-0.2,0.1h-0.2l-0.2-0.1c0,0-0.1-0.2-0.2-0.2v-0.2c0,0,0-0.2,0.2-0.2v0.2c0,0,0,0.1,0,0.2l0.1,0.2l0.2,0.1h0.2
	c0,0,0.1-0.1,0.1-0.2L556.9,522.7"/>
<path id="Fill-515" fill="#56707B" d="M555.3,522L555.3,522c0.1,0,0.2,0,0.2,0l0.2-0.1l0.1-0.2c0,0,0-0.1-0.1-0.2l-0.2-0.1l-0.2,0.1
	l0,0l0,0l0,0l0.1-0.1l0.2-0.1h0.2l0.1,0.1c0,0,0,0.1,0,0.2l-0.1,0.2c0,0-0.1,0.1-0.2,0.1h-0.1l0.1,0.1c0,0,0.1,0.2,0,0.2l-0.1,0.2
	l-0.2,0.2l-0.2,0.1c0,0-0.2,0-0.2-0.1c0,0-0.2-0.1-0.2-0.2l0.2,0.1c0,0,0.1,0.1,0.2,0.1c0,0,0.2,0,0.2-0.1c0,0,0.1-0.2,0.2-0.2v-0.2
	L555.3,522L555.3,522"/>
<path id="Fill-516" fill="#56707B" d="M605.6,488.9L605.6,488.9c0,0,0.1-0.1,0.2-0.1l0.1-0.1v-0.2l-0.1-0.1h-0.2l-0.1,0.1l0,0l0,0
	l0,0l0.1-0.1l0.1-0.1h0.2l0.1,0.1l0.1,0.1v0.2c0,0-0.1,0.1-0.1,0.2l-0.1,0.1l0.1,0.1c0,0,0.1,0.1,0.1,0.2v0.2l-0.1,0.2
	c0,0-0.1,0.1-0.2,0.1h-0.2c0,0-0.2,0-0.2-0.1h0.2c0,0,0.1,0,0.2,0l0.1-0.1l0.1-0.2c0,0,0-0.2-0.1-0.2c0,0-0.1-0.1-0.2-0.1
	L605.6,488.9"/>
<path id="Fill-517" fill="#6F8F9D" d="M572.8,484.6C572.7,484.6,572.7,484.6,572.8,484.6C572.7,484.6,572.7,484.6,572.8,484.6z
	 M569,486.3L569,486.3L569,486.3z M569,486.4L569,486.4L569,486.4z M563.7,489.5c0-0.1,0-0.1,0-0.2l0,0c0,0,0,0-0.1,0l0,0l0,0
	C563.7,489.5,563.7,489.5,563.7,489.5L563.7,489.5L563.7,489.5z M537,489.5L537,489.5L537,489.5z M558.9,489.9L558.9,489.9
	c0-0.2,0.1-0.4,0.1-0.5l0,0l0,0c-0.1,0-0.2-0.1-0.2-0.1C558.8,489.5,558.8,489.7,558.9,489.9z M538.9,490.5c0,0.1,0,0.1,0,0.2l0,0
	v0.1C538.9,490.6,538.9,490.5,538.9,490.5L538.9,490.5L538.9,490.5L538.9,490.5z M542.6,490.9C542.5,490.9,542.5,490.9,542.6,490.9
	C542.6,491,542.6,491,542.6,490.9c0.1,0.1,0.2,0.2,0.2,0.2c0-0.2,0-0.2,0-0.3l0,0C542.7,490.7,542.7,490.8,542.6,490.9z
	 M543.1,491.1L543.1,491.1L543.1,491.1L543.1,491.1z M556.6,491.1L556.6,491.1L556.6,491.1z M556.1,491c0,0.1-0.1,0.2-0.1,0.2
	c-0.1,0.1-0.1,0.1-0.2,0.2l0,0c0.2-0.1,0.3-0.2,0.6-0.2h0.1C556.3,491.1,556.1,491.1,556.1,491L556.1,491z M547.5,492L547.5,492
	L547.5,492z M547.6,492.4L547.6,492.4L547.6,492.4L547.6,492.4L547.6,492.4L547.6,492.4z M547.7,492.9L547.7,492.9L547.7,492.9
	L547.7,492.9L547.7,492.9z M543.6,495.5L543.6,495.5L543.6,495.5z M547,496.1L547,496.1L547,496.1z M544.6,498.2L544.6,498.2
	L544.6,498.2L544.6,498.2L544.6,498.2z M544.8,499.2c-0.3-0.1-0.2-0.4-0.3-0.6c0-0.2-0.2-0.2-0.2-0.4l0,0c0-0.2,0.2-0.2,0.2-0.2
	c-0.1,0-0.2-0.1-0.2-0.2c-0.2-0.1-0.2-0.2-0.2-0.4c-0.1-0.2,0-0.1-0.2-0.2c-0.1-0.1-0.2-0.2-0.2-0.3s0.1-0.3,0.2-0.4
	c-0.2-0.1-0.2-0.3-0.2-0.5v-0.1h-0.1l0,0c-0.2,0-0.2-0.3-0.3-0.5c0-0.2,0-0.3,0.1-0.4c0.1-0.2,0.1-0.4,0.1-0.7
	c0-0.2,0.2-0.5,0.3-0.7c0.2-0.2,0.1-0.2,0.2-0.4c0.1-0.3,0.4-0.4,0.7-0.5c0.2-0.1,0.2-0.1,0.2-0.2v-0.1c0-0.1,0-0.1,0-0.1
	s-0.1,0-0.2,0c-0.2,0-0.3,0-0.5-0.2c-0.1,0.1-0.2,0.1-0.2,0.1c-0.1,0-0.2,0-0.2-0.1c-0.2-0.2-0.2-0.4-0.2-0.6c0-0.1,0-0.1,0-0.2
	h-0.1h-0.1c-0.1,0-0.1,0-0.2-0.1v0.1c0,0.1,0,0.1,0,0.2c-0.2,0.3-0.6,0.5-0.9,0.7c-0.2,0.1-0.3,0.1-0.5,0.1s-0.3,0-0.4-0.1l0,0
	c0,0-0.1,0.1-0.1,0.2c-0.2,0.2-0.3,0.3-0.6,0.3c-0.1,0-0.2,0-0.2-0.1c-0.2-0.1-0.4-0.2-0.4-0.5c0-0.2,0.2-0.4,0.4-0.6
	c-0.1,0-0.2-0.1-0.2-0.1c-0.2-0.1-0.2-0.1-0.3-0.1h-0.1h-0.1c-0.2,0-0.4-0.1-0.5-0.2s-0.1-0.1-0.1-0.2l0,0c0,0.2-0.2,0.4-0.5,0.4
	c0,0,0,0-0.1,0c-0.4,0-0.4-0.4-0.5-0.7c0-0.1,0-0.1,0-0.2l0,0c0,0-0.1,0-0.2,0c-0.5-0.1-0.4-0.6-0.4-0.7c0-0.2,0-0.2-0.2-0.3v0.1
	c0,0.2,0,0.2,0,0.3l0,0c0,0.1,0.1,0.4,0.1,0.5s0.1,0.2,0.1,0.3c0,0.1,0,0.1,0,0.2c-0.1,0.2-0.3,0.4-0.5,0.5c-0.1,0-0.1,0.1-0.2,0.1
	c-0.2-0.1-0.2-0.2-0.2-0.6c0-0.1,0-0.2,0-0.2l0,0c-0.1,0-0.1,0-0.2,0l0,0l0,0c0,0.1,0,0.2,0,0.3c-0.1,0.3-0.5,0.5-0.7,0.6
	c0,0,0,0-0.1,0s-0.2-0.2-0.2-0.2c0-0.2,0.1-0.3,0.2-0.5c-0.1,0-0.2,0-0.2,0.1c-0.2,0.1-0.2,0.1-0.2,0.2c-0.2,0.2-0.4,0.2-0.7,0.2
	c-0.2,0-0.2,0-0.2,0l-0.2-0.1c0.1-0.2,0.2-0.2,0.4-0.2s0.4-0.1,0.4-0.1c0.1-0.2,0.2-0.2,0.3-0.3c0.1-0.1,0.2-0.1,0.3-0.1
	s0.2,0.1,0.2,0.2s0,0.1-0.1,0.2s-0.2,0.2-0.2,0.3c0.2,0,0.5-0.2,0.5-0.3c0-0.1,0-0.2,0-0.3c0-0.1,0.1-0.2,0.2-0.2l0,0l0,0
	c0.1,0,0.1,0,0.2,0s0.2,0,0.2,0.1c0.1,0.1,0.1,0.2,0.1,0.3c0,0.1,0,0.2,0,0.2l0,0c0.2-0.1,0.3-0.2,0.3-0.3c0-0.1,0-0.1,0-0.1
	c0-0.1,0-0.2-0.1-0.2c-0.1-0.2-0.1-0.4-0.2-0.6v-0.1c0-0.1,0-0.2,0-0.3c0.1-0.2,0-0.3,0.2-0.4c0.1,0,0.1,0,0.2,0.1
	c0.2,0.2,0.2,0.4,0.2,0.6s0,0.4,0.2,0.4c0.3,0,0.5,0.1,0.5,0.4c0.1,0.3,0.1,0.4,0.2,0.4l0,0c0.2,0,0.2-0.1,0.2-0.2l0,0
	c0-0.2,0-0.2,0-0.3v-0.1c0-0.1,0-0.1,0-0.1s0,0,0-0.1s0-0.1,0-0.2s0-0.2,0.2-0.2c0.1,0,0.2,0.1,0.2,0.1c0.1,0.1,0.2,0.2,0.2,0.4
	c0,0,0,0,0,0.1s0,0.2,0,0.2c0,0.1,0,0.1,0.1,0.2c0.2,0.2,0.2,0.2,0.3,0.2h0.1c0.1,0,0.1,0,0.2,0c0.2,0,0.3,0,0.5,0.1
	c0.1,0.1,0.3,0.1,0.4,0.3c0,0.1-0.1,0.2-0.2,0.2c-0.2,0.1-0.3,0.2-0.3,0.3c0,0.1,0.1,0.2,0.2,0.2c0,0,0.1,0,0.2,0
	c0.2,0,0.3-0.1,0.3-0.2c0.1-0.2,0.1-0.2,0.3-0.3c0.1,0,0.2,0,0.2,0.1c0.1,0,0.2,0.1,0.2,0.1c0.1,0,0.2,0,0.3-0.1
	c0.3-0.2,0.7-0.3,0.7-0.5V491c0-0.1-0.1-0.2-0.2-0.2c-0.2-0.1-0.2-0.2-0.2-0.3c0-0.1,0.1-0.2,0.2-0.2c0.2-0.2,0.3-0.2,0.3-0.2
	c0.1-0.1,0.1-0.1,0.2-0.1c0.2,0.1,0.2,0.2,0.2,0.2s0,0.1,0,0.2v0.1c0,0.2,0,0.3,0.1,0.4c0.1,0,0.2-0.1,0.2-0.1
	c0.2,0,0.2,0.2,0.2,0.3c0,0.1,0,0.1,0,0.2c0,0.2,0,0.3,0.1,0.3s0.1,0,0.2,0c0.1,0,0.1,0,0.1,0v-0.1c0,0,0-0.2,0.2-0.2
	c0.2,0.1,0.2,0.1,0.2,0.2c0.1,0.1,0.1,0.1,0.2,0.1c0.1,0,0.2,0,0.3,0.1s0.2,0.2,0.2,0.3v0.1c0,0.2-0.1,0.4-0.4,0.5
	c-0.3,0.1-0.5,0.2-0.5,0.2c0,0.2,0,0.3-0.2,0.6c-0.2,0.2-0.2,0.3-0.2,0.6s0,0.5-0.1,0.7c0,0.1-0.1,0.2-0.1,0.3c0,0.1,0,0.2,0,0.2
	c0.1,0,0.2,0,0.2-0.1c0.2,0,0.2,0.2,0.2,0.3v0.1c0,0.2,0,0.2,0.1,0.2s0.1,0,0.2,0c0,0,0.2,0.1,0.2,0.2c0,0.2-0.1,0.2-0.2,0.2
	c-0.2,0.1-0.2,0.2-0.2,0.2s0,0.1,0.1,0.1c0.2,0.2,0.2,0.2,0.2,0.4c0,0.2,0,0.1,0.2,0.2s0.2,0.2,0.4,0.2s0.2,0,0.3,0.2
	c0,0.2-0.2,0.2-0.2,0.2c-0.2,0-0.3,0-0.3,0.1s0.2,0.2,0.2,0.5c0,0.1,0,0.2,0,0.2c0,0.1,0,0.1,0,0.1l0,0l0,0c0.1,0,0.2-0.1,0.3-0.2
	c0.1,0,0.2-0.1,0.2-0.1c0.1,0,0.2,0,0.3,0.1h0.2c0.3,0,0.9-0.1,1-0.2c0.2-0.1,0.6-0.6,0.7-0.8c0.1-0.1,0.1-0.2,0.1-0.3
	c0-0.1,0-0.2-0.1-0.2c-0.2-0.1-0.3-0.2-0.5-0.4c-0.1-0.2-0.2-0.2-0.3-0.2c-0.2-0.1-0.2-0.3-0.3-0.5c0-0.1,0-0.1,0-0.2s0-0.1,0-0.2
	c0,0,0-0.2,0.2-0.2s0.2,0.1,0.2,0.2c0,0,0,0,0,0.1c-0.1-0.1-0.1-0.2-0.2-0.3c-0.1-0.1-0.2-0.1-0.2-0.1s-0.1,0-0.2,0
	c-0.1,0-0.1,0-0.2,0c-0.2,0-0.3-0.1-0.3-0.2s0-0.2,0-0.2v-0.2v-0.1l0,0c-0.1-0.1-0.2-0.2-0.2-0.3c0-0.1,0.1-0.2,0.2-0.3
	c0.2-0.1,0.4-0.3,0.7-0.3h0.1c0.2,0,0.2,0.2,0.2,0.2s0,0.2-0.1,0.2c0,0.1-0.1,0.2-0.2,0.2c0,0,0.1-0.1,0.2-0.1s0.2-0.1,0.3-0.1
	c0.2,0,0.2,0.1,0.4,0.2c0.1,0.1,0.2,0.2,0.2,0.2l0,0c0-0.1,0-0.2,0-0.2c0-0.2,0-0.2,0-0.2l0,0l0,0c-0.1,0-0.1,0-0.2,0
	c-0.2,0-0.4-0.1-0.6-0.1c-0.2-0.1-0.2-0.2-0.2-0.3c0-0.1,0-0.2,0.2-0.3c0.1-0.1,0.3-0.2,0.3-0.3c0,0,0,0,0-0.1
	c-0.1-0.3-0.1-0.5-0.2-0.7c-0.1-0.2-0.1-0.3-0.1-0.5c0,0,0,0,0-0.1s0-0.2,0.2-0.2s0.2,0.1,0.2,0.2s0,0.1,0.1,0.2l0,0
	c0.1,0,0.2,0.1,0.2,0.2s-0.1,0.2-0.1,0.2l0,0l0,0c0.2,0.1,0.2,0.2,0.2,0.2c0,0.1,0,0.1,0,0.2s-0.1,0.2-0.1,0.2
	c0.2,0,0.8-0.2,0.9-0.4c0.2-0.2,0.3-0.7,0.7-0.7h0.1c0.1,0,0.1,0,0.2,0c0.2,0,0.7-0.1,0.9-0.1c0.3-0.1,0.7-0.2,0.8-0.2s0.2,0,0.3,0
	v-0.1c0,0,0-0.1,0.1-0.2s0.1-0.1,0.2-0.1h0.1h0.2c0,0,0.2,0,0.2,0.2c0,0.1,0,0.2-0.1,0.2l0,0c0.1-0.1,0.2-0.1,0.3-0.2h0.1
	c0,0-0.1-0.1-0.1-0.2c0-0.2,0.2-0.2,0.2-0.2c0.1,0,0.1,0,0.2,0c0.2,0,0.3,0,0.5,0.2c0.1,0.1,0.2,0.1,0.2,0.1s0,0,0.1,0
	c0.1-0.1,0-0.2,0.2-0.2c0.1,0,0.1,0,0.2,0.1c0.1,0,0.1,0.1,0.1,0l0,0c0,0,0,0,0-0.1c0.1-0.2,0.2-0.3,0.4-0.4
	c0.1-0.1,0.1-0.2,0.1-0.2s0-0.1-0.1-0.2s-0.2-0.1-0.2-0.3c0-0.1,0.1-0.2,0.2-0.2s0.1,0,0.2,0c0.2,0,0.5,0,0.6,0.2
	c0.2,0.2,0.1,0.1,0.2,0.2c0.1,0,0.1,0.1,0.2,0.1c0-0.1,0.1-0.2,0.2-0.2c0.1-0.1,0.2-0.1,0.2-0.2c0,0-0.1-0.1-0.1-0.2
	c0.1-0.2,0.2-0.2,0.3-0.2c0.2,0,0.2-0.1,0.3-0.1l0,0h0.1c0.2,0,0.2,0,0.3,0c0.2,0,0.3,0.1,0.3,0.2s0.2,0.3,0.3,0.3l0,0
	c0.2,0,0.4-0.2,0.4-0.3c0,0,0,0,0-0.1c0-0.2-0.2-0.7-0.2-1c0-0.1,0-0.1,0-0.2s0-0.2,0-0.2c0-0.1,0-0.2,0.2-0.2s0.2,0.1,0.2,0.2
	c0.2,0.3,0,0.2,0.2,0.2c0.1,0,0.2,0.1,0.2,0.2s0,0.1-0.1,0.2c0,0.1-0.1,0.2-0.1,0.3c0,0.1,0,0.2,0.1,0.2c0.2,0.2,0.3,0.2,0.5,0.2
	l0,0l0,0c0.1,0,0.3-0.2,0.4-0.4c0.2-0.2,0.4-0.6,0.7-0.7c0.1,0,0.2-0.1,0.2-0.1c0.2,0,0.3,0.1,0.5,0.2c0.1,0.1,0.2,0.2,0.2,0.2l0,0
	c0.1-0.1,0.2-0.2,0.4-0.4v-0.1c0-0.1,0-0.1-0.1-0.2s-0.2-0.2-0.2-0.4c0-0.1,0.1-0.2,0.2-0.3c0.1-0.1,0.1-0.2,0.1-0.2v-0.1
	c0-0.1-0.1-0.2-0.1-0.4c-0.1-0.2,0-0.6,0-0.7s0-0.2,0-0.3c0-0.1,0-0.1,0-0.2c0,0,0-0.2,0.2-0.2c0.1,0,0.1,0.1,0.2,0.1
	c0.2,0.2,0.1,0.4,0.2,0.7c0,0.2,0,0.5,0,0.7c0,0.1,0,0.1,0,0.1c0.2,0.1,0.2,0.2,0.2,0.5c0,0,0,0,0,0.1l0,0c0,0.1,0.1,0.2,0.1,0.3
	l0,0c0.1,0,0.1,0.1,0.2,0.2l0.1,0.2v0.2c0,0,0,0,0.1,0l0,0c0,0,0-0.1,0-0.2s0.1-0.2,0.1-0.2s0-0.1,0-0.2s0.1-0.2,0.1-0.2h0.1
	c0.2,0.1,0.2,0.2,0.2,0.3l0,0l0,0v0.1l0,0c0.1,0,0.2,0,0.2,0c0.1,0,0.1,0,0.1,0l0,0c0,0,0,0,0-0.1s-0.1-0.2-0.1-0.2
	c0-0.2-0.1-0.2-0.1-0.3c0,0,0,0,0-0.1l0,0c0,0,0-0.1,0-0.2c0,0,0-0.1,0.1-0.2l0,0c0.1-0.1,0.1-0.1,0.1-0.1l0,0
	c0.2,0,0.3,0.2,0.5,0.2s0.4-0.3,0.4-0.4l0,0c0-0.1,0-0.1,0-0.2c0-0.2,0.1-0.2,0.1-0.4v-0.1c0-0.1,0,0-0.2-0.2
	c-0.1-0.1-0.2-0.2-0.2-0.3c0-0.1,0-0.2,0.1-0.3c0-0.1,0.1-0.2,0.1-0.2c0-0.2-0.1-0.3-0.1-0.4c-0.1-0.1-0.1-0.2-0.1-0.2
	c0-0.2,0.2-0.2,0.2-0.2c0-0.1,0-0.1-0.1-0.2c0-0.1,0-0.1,0-0.2c0-0.2,0.2-0.2,0.2-0.2c0-0.1-0.1-0.2-0.2-0.3
	c-0.2-0.3-0.3-0.5-0.3-0.7v-0.1c0-0.2,0.1-0.4,0.3-0.4c0.1,0,0.2,0,0.2,0.1c0.2,0.1,0.4,0.2,0.4,0.5c0,0.1,0,0.1,0,0.2
	c-0.1,0.2-0.1,0.2-0.1,0.3l0,0c0.1,0.1,0.2,0.2,0.2,0.4c0.1,0.1,0.1,0.2,0.2,0.2c0,0,0,0,0.1,0s0.1,0,0.2,0c0.2,0,0.3,0.1,0.3,0.3
	l0,0l0,0l0,0c0,0.2,0.1,0.4,0.2,0.6c0.1,0.2,0.2,0.4,0.3,0.5l0,0c0.2-0.1,0.3-0.2,0.5-0.2c0.1,0,0.2,0,0.2,0.1
	c0.1,0.1,0.1,0.1,0.1,0.2c0,0.2-0.2,0.3-0.3,0.4c-0.2,0.1-0.2,0.2-0.2,0.2l0,0c0,0,0,0.1,0.3,0.1c0.1,0,0.2,0,0.3,0
	c0.2,0,0.3,0,0.5,0.1c0.1,0,0.3,0.1,0.5,0.1s0.2,0,0.4-0.1c0.3-0.2,0.2-0.1,0.2-0.2c0,0-0.1,0-0.2,0s-0.2,0-0.3,0s-0.2,0.1-0.2,0.1
	s-0.2,0-0.2-0.1s-0.1-0.1-0.1-0.2c0-0.2,0.2-0.2,0.4-0.2c0.1,0,0.2,0,0.2,0c0-0.1,0-0.1-0.1-0.1c0,0-0.1,0-0.2-0.1
	c-0.1-0.1-0.2-0.1-0.2-0.2s0.2-0.2,0.2-0.2c0.1,0,0.2-0.1,0.4-0.1s0.5,0.1,0.6,0.4c0.1,0.5,0,0.4,0.2,0.4s0.7-0.2,0.7-0.3l0,0
	c0,0-0.1,0-0.1-0.1c-0.2-0.1-0.2-0.2-0.2-0.3c0-0.1,0.1-0.2,0.1-0.2c0-0.1,0-0.1,0-0.1s0,0,0-0.1c-0.1-0.1-0.1-0.2-0.1-0.2
	c0-0.2,0.1-0.3,0.3-0.4s0.5-0.1,0.7-0.2c0.2-0.2,0.2-0.2,0.4-0.2c0.1,0,0.2,0.1,0.2,0.2l0,0c0,0.2-0.3,0.4-0.3,0.6c0,0,0,0.1,0,0.2
	c0,0.2,0.1,0.2,0.2,0.3c0.2,0.1,0.4,0.2,0.5,0.2l0,0c0,0,0.1,0,0.2-0.2c0.1-0.1,0.1-0.2,0.1-0.2c0-0.1,0-0.1,0-0.1
	c-0.1-0.1-0.2-0.1-0.3-0.2s-0.2-0.2-0.2-0.2c0-0.1,0.2-0.2,0.2-0.2s0.1,0,0.2,0c0.1,0,0.2,0,0.2,0.1c0.1,0.1,0.2,0.2,0.2,0.2l0,0
	c0.1-0.2,0.3-0.5,0.7-0.6c0.2-0.1,0.2-0.1,0.3-0.1s0.1-0.1,0.2-0.1c0.2,0,0.2,0.1,0.3,0.2s0.1,0.1,0.3,0.1c0.1,0,0.2,0,0.3,0
	s0.2,0,0.2,0.2c0,0.1-0.1,0.2-0.1,0.2s0,0-0.1,0.1c0.2,0.1,0.5,0,0.7,0.1l0,0c0,0,0.1,0,0.2-0.2h-0.1c-0.1,0-0.2,0-0.2-0.2
	c0-0.1,0-0.2,0.1-0.2c0.1-0.2,0.3-0.4,0.6-0.6c0.1-0.1,0.2-0.2,0.2-0.2c0.2,0,0.2,0.1,0.2,0.2c0.1,0.2,0.2,0.2,0.2,0.2
	c0.1,0,0.3,0.1,0.3,0.3c0,0.1,0.1,0.1,0.2,0.2h0.1c0.2,0,0.8-0.6,1.2-0.6c0.2,0,0.3-0.1,0.4-0.2c0.1-0.2,0.4-0.5,1-0.5
	c0.4,0,0.6-0.1,0.8-0.2c0.2-0.2,0.3-0.4,0.3-0.4s0,0,0-0.1s0,0,0-0.2c0-0.1,0-0.2,0.1-0.2c0.1-0.1,0.1-0.2,0.1-0.2l0,0
	c0,0,0,0-0.1,0l0,0c-0.1,0-0.2,0-0.2-0.2s0.1-0.2,0.2-0.2c0.1-0.1,0.1-0.1,0.2-0.1c0.1,0,0.1,0.1,0.2,0c0.2,0.1,0.2,0.2,0.3,0.3
	c0.1-0.1,0.2-0.2,0.3-0.2s0.1,0,0.2,0c0.1,0,0.1,0,0.2,0V480c0-0.1-0.1-0.1-0.1-0.1c-0.2,0-0.2-0.1-0.3-0.2c0-0.1,0.1-0.2,0.2-0.3
	c0.2-0.2,0.5-0.4,0.6-0.7c0.2-0.3,0.2-0.5,0.2-0.6c0-0.2,0.2-0.2,0.3-0.2s0.2-0.1,0.4-0.1c0.1,0,0.2,0,0.3,0.1s0.2,0.1,0.2,0.1
	c0.1,0,0.2,0,0.2,0c0.2-0.1,0.3-0.2,0.3-0.2s0-0.2,0-0.3c0-0.1,0-0.2,0.2-0.3c0.1,0,0.1,0,0.1,0c0.2,0.2,0.2,0.4,0.2,0.3
	c0.1,0,0.2,0.2,0.2,0.3c0,0.1,0,0.1,0,0.2l0,0c0.2-0.1,0.3-0.2,0.3-0.2s0-0.3,0.3-0.3l0,0v0.2h0.6c0,0,0,0.1,0,0.2
	c-0.1,0.2-0.4,0.4-0.6,0.5c-0.1,0-0.1,0-0.2,0c-0.2,0-0.2-0.2-0.2-0.2c0-0.1,0-0.1,0-0.2s0-0.1,0-0.1c0-0.1,0,0-0.1-0.1
	c-0.2-0.2-0.2-0.2-0.2-0.3l0,0c0,0.1,0,0.2,0,0.3c-0.1,0.2-0.2,0.4-0.6,0.5c-0.1,0-0.2,0.1-0.3,0.1c-0.2,0-0.3-0.1-0.5-0.2
	c0,0-0.1-0.1-0.2-0.1c-0.2,0-0.2,0-0.4,0.1c-0.1,0-0.1,0-0.1,0l0,0l0,0c0,0.2-0.1,0.3-0.2,0.7c-0.2,0.4-0.4,0.7-0.7,0.9
	c0,0-0.1,0-0.1,0.1c0.3,0.1,0.3,0.3,0.4,0.4v0.1c0,0.2-0.2,0.2-0.2,0.2s-0.2,0-0.3-0.1h-0.1c0,0-0.1,0-0.2,0.2
	c0,0.1-0.1,0.1-0.2,0.1c-0.2,0-0.2-0.1-0.2-0.2c0,0.2-0.1,0.2-0.2,0.4l0,0c0,0,0,0.1,0,0.2c0,0,0,0,0,0.1c0,0.2-0.2,0.5-0.4,0.7
	s-0.5,0.2-1,0.2c-0.4,0-0.7,0.2-0.7,0.4c-0.2,0.2-0.3,0.2-0.7,0.2c-0.2,0-0.9,0.5-1.2,0.6c-0.1,0-0.1,0-0.2,0
	c-0.2,0-0.4-0.2-0.4-0.3c-0.1-0.1,0,0-0.2-0.1s-0.3-0.2-0.4-0.3l0,0l-0.1,0.1c-0.2,0.1-0.3,0.3-0.4,0.4h0.1c0,0,0.1,0,0.2,0.1
	c0.1,0.1,0.1,0.1,0.1,0.2s0,0.2-0.1,0.2c-0.1,0.2-0.2,0.3-0.4,0.3c-0.1,0-0.1,0-0.2,0c-0.1-0.1-0.3-0.1-0.7-0.1
	c-0.1,0-0.2,0-0.2-0.2c0-0.1,0.1-0.2,0.2-0.2c-0.1,0-0.2,0-0.2,0c-0.2,0-0.4-0.1-0.5-0.2s-0.1-0.1-0.1-0.1l0,0l0,0
	c-0.1,0.1-0.2,0.1-0.4,0.2c-0.2,0-0.4,0.2-0.5,0.5c-0.1,0.1-0.2,0.2-0.2,0.2c-0.1,0-0.1,0-0.2,0c0,0.1,0.1,0.2,0.1,0.2
	c0,0.2,0,0.2-0.2,0.4c-0.1,0.2-0.2,0.2-0.4,0.2h-0.1c-0.2-0.1-0.2-0.1-0.6-0.2c-0.2-0.1-0.3-0.4-0.3-0.6s0-0.2,0.1-0.3
	c0,0,0-0.1,0.1-0.1c-0.2,0.1-0.4,0.2-0.6,0.2c-0.1,0-0.1,0.1-0.1,0.1v0.1c0.1,0.1,0.1,0.2,0.1,0.2l-0.1,0.2l0,0l0,0
	c0,0,0.1,0.1,0.2,0.1c0.2,0.1,0.2,0.2,0.2,0.3c0,0.2-0.1,0.2-0.2,0.2c-0.1,0.1-0.5,0.3-0.9,0.3s-0.4-0.3-0.4-0.7
	c0-0.2-0.1-0.2-0.2-0.2c-0.1,0-0.2,0-0.2,0c0.1,0,0.2,0.1,0.2,0.2s0.1,0.1,0.1,0.2c0,0,0,0.1,0,0.2s-0.1,0.2-0.2,0.2c0,0,0,0,0.1,0
	c0.2,0,0.4,0,0.4,0.2l0,0l0,0c0,0.2-0.2,0.4-0.5,0.5c-0.2,0.1-0.3,0.1-0.5,0.1s-0.5-0.1-0.7-0.1c-0.1,0-0.2-0.1-0.3-0.1
	s-0.2,0-0.3,0c-0.2,0-0.6,0-0.6-0.3c0,0,0,0,0-0.1c0-0.2,0.2-0.3,0.3-0.4s0.2-0.1,0.2-0.2c-0.1,0-0.2,0.1-0.3,0.2h-0.1
	c-0.3-0.1-0.5-0.5-0.6-0.7s-0.2-0.5-0.2-0.7c0,0,0,0,0-0.1l0,0c0,0,0,0-0.1,0h-0.1H565c-0.2,0-0.3-0.2-0.4-0.2
	c-0.1-0.2-0.2-0.2-0.2-0.3c-0.1-0.1-0.1-0.2-0.1-0.2c0-0.2,0.1-0.3,0.1-0.4c0,0,0,0,0-0.1s-0.1-0.2-0.2-0.2c-0.1,0-0.1,0-0.1,0
	s0,0,0,0.2c0,0,0,0,0,0.1c0,0.2,0,0.3,0.2,0.6c0.2,0.2,0.2,0.3,0.2,0.5c0,0.1-0.1,0.2-0.2,0.2l0,0c0,0.1,0.1,0.2,0.1,0.3
	c0,0.1-0.1,0.2-0.2,0.2l0,0h-0.1l0,0c0,0,0,0.1,0.1,0.1c0.1,0.2,0.2,0.3,0.2,0.6c0,0.1,0,0.2-0.1,0.3c0,0.1-0.1,0.2-0.1,0.2
	c0,0.1,0,0.1,0.1,0.2c0,0.1,0.2,0.1,0.2,0.3v0.1c0,0.2-0.1,0.2-0.1,0.3v0.1v0.1c0,0.2-0.2,0.6-0.7,0.7c-0.2,0-0.2-0.1-0.3-0.2l0,0
	l0,0c0,0.1,0,0.2,0,0.2l0.1,0.2c0,0.1,0.1,0.2,0.1,0.2v0.1c-0.1,0.2-0.2,0.2-0.3,0.2c-0.2,0-0.2,0-0.2,0c-0.1,0-0.2-0.1-0.2-0.2
	c0,0,0-0.1-0.1-0.1c0,0.1-0.1,0.2-0.1,0.2v0.1l0,0l0,0c0.1,0,0.2,0,0.2,0.1c0.1,0.1,0.1,0.2,0.1,0.4l0,0c0,0.2-0.2,0.2-0.2,0.2h-0.1
	c-0.1,0-0.2-0.1-0.2-0.2c-0.1-0.1-0.1-0.2-0.1-0.2l-0.1-0.1c0,0-0.1,0-0.2-0.2c-0.1-0.1-0.1-0.2-0.1-0.3c0-0.1,0-0.2,0-0.2l0,0l0,0
	c-0.1,0-0.1-0.1-0.1-0.1c-0.2-0.2-0.2-0.3-0.2-0.5c0,0,0,0,0-0.1l0,0c0-0.1,0-0.1-0.1-0.2v0.1c0,0.2-0.1,0.3-0.2,0.4v0.1
	c0,0.1,0,0.2,0.1,0.2c0.1,0.1,0.2,0.2,0.2,0.3c0,0.1,0,0.2-0.1,0.2c-0.1,0.2-0.2,0.3-0.4,0.4c-0.1,0.1-0.2,0.1-0.2,0.1
	c-0.2,0-0.3-0.1-0.5-0.2c-0.1-0.1-0.2-0.2-0.2-0.2h-0.1c-0.1,0-0.4,0.4-0.6,0.6c-0.2,0.2-0.3,0.5-0.7,0.5c0,0,0,0-0.1,0
	c-0.2,0-0.5-0.2-0.7-0.3c-0.1-0.1-0.1-0.1-0.1-0.2v0.1c0,0.1,0,0.1,0,0.2c-0.1,0.2-0.3,0.5-0.7,0.6c0,0,0,0-0.1,0
	c-0.3,0-0.6-0.3-0.7-0.5s-0.1-0.1-0.1-0.1c-0.1,0-0.2,0-0.3,0H556l0,0c0,0-0.2,0-0.3,0.1v0.1c0,0.2-0.2,0.2-0.3,0.3l0,0
	c0.1,0,0.2,0.1,0.2,0.1s0.2,0.1,0.2,0.2c-0.1,0.2-0.3,0.2-0.5,0.3c-0.2,0-0.2,0-0.3,0.2c-0.1,0.1-0.2,0.2-0.3,0.2s-0.1,0-0.1,0
	c-0.1,0-0.2-0.1-0.1-0.2c0-0.2,0.2-0.4,0.3-0.6v-0.1c-0.2,0-0.2-0.2-0.2-0.2c-0.1-0.1-0.1-0.1-0.2-0.1c0.1,0.1,0.2,0.2,0.2,0.3
	c0,0.2-0.1,0.2-0.2,0.4c-0.2,0.2-0.2,0.2-0.3,0.4c-0.1,0.1-0.2,0.2-0.2,0.2s-0.2,0-0.2-0.1c0,0,0,0,0,0.1c-0.1,0.1-0.2,0.2-0.2,0.2
	c-0.2,0-0.2-0.1-0.4-0.1c-0.1-0.1-0.2-0.1-0.4-0.1c0,0,0,0-0.1,0v0.1c-0.1,0.2-0.2,0.2-0.3,0.3c-0.2,0.1-0.2,0.1-0.3,0.2
	s-0.2,0.2-0.3,0.2s-0.2-0.1-0.2-0.2V491c0-0.2,0.1-0.2,0.2-0.3h-0.1l0,0c-0.1,0.2-0.2,0.2-0.2,0.2c-0.1,0-0.2,0-0.3,0
	c-0.2,0-0.5,0-0.7,0.1s-0.7,0.2-1,0.2c-0.1,0-0.2,0-0.2,0l0,0c-0.2,0-0.3,0.3-0.5,0.6c-0.2,0.3-0.8,0.5-1.2,0.5
	c-0.1,0-0.2,0-0.2-0.1c-0.1,0.3-0.4,0.4-0.5,0.5c0,0,0,0,0,0.1s0,0.1,0,0.1c0.1,0,0.2,0.1,0.4,0.1h0.1l0,0c0.2,0,0.3,0.3,0.3,0.4
	c0,0.2,0,0.3-0.1,0.4c0,0.1-0.1,0.2-0.2,0.2c-0.2,0-0.3-0.2-0.5-0.2c-0.1-0.1-0.2-0.1-0.2-0.1c-0.1,0-0.1,0-0.2,0.1
	c-0.1,0-0.2,0.2-0.3,0.2s-0.1,0-0.2-0.1c-0.1-0.1-0.1-0.1-0.1-0.2c0-0.2,0.2-0.4,0.2-0.5v-0.1l0,0l0,0c-0.1,0-0.3,0.2-0.5,0.3
	c-0.1,0.1-0.1,0.1-0.1,0.1s0,0.1,0.1,0.1s0.2,0.2,0.2,0.2c0,0.1,0,0.1,0,0.2v0.2v0.2c0,0,0,0,0.1,0h0.1c0.1,0,0.2,0,0.2,0
	c0.2,0,0.3,0,0.4,0.2c0.2,0.2,0.3,0.5,0.3,0.7c0,0.1-0.1,0.2-0.2,0.2c-0.1,0-0.2-0.1-0.2-0.2c0,0.2,0.1,0.2,0.1,0.2
	c0.1,0,0.4,0.1,0.5,0.3c0.1,0.2,0.2,0.2,0.4,0.3c0.1,0.1,0.2,0.2,0.2,0.3c0,0.2-0.1,0.4-0.2,0.5c-0.2,0.2-0.5,0.7-0.7,0.8
	c-0.2,0.1-0.7,0.2-1.2,0.2c-0.2,0-0.2,0-0.4-0.1c-0.1,0-0.2-0.1-0.2-0.1c-0.1,0-0.1,0-0.2,0.1C545.2,499.2,545.1,499.2,544.8,499.2
	L544.8,499.2z"/>
<path id="Fill-518" fill="#6F8F9D" d="M563.5,486.7c0-0.2-1-0.8-1-1.7c0.1-0.4-1.2-1.3-1.6-2.2c-0.1-0.2-0.2-0.2-0.6-0.2
	c-0.2,0-0.4,0-0.7,0c-0.2,0-0.6,0-0.8-0.2c-0.2-0.1-0.3-0.1-0.4-0.1c-0.2,0-0.2,0.2-0.7,0.3c-0.1,0-0.1,0-0.2,0
	c-0.5,0-1.5-0.2-2.1-0.2c-0.7-0.1-1.4-0.3-1.7-1.2c0-0.3-1.3-0.5-2.2-0.5c-0.1,0-0.2,0-0.3,0c-0.8,0-1.7,0-2.3-0.1
	c-0.6,0-0.8,0-1.7-0.7c-0.2-0.2-0.3-0.2-0.4-0.2c-0.3,0-0.7,0.6-0.8,0.8l0,0l-0.4-0.2c0.1-0.1,0.4-1,1.2-1.1c0.2,0,0.5,0.1,0.7,0.2
	c1,0.7,0.8,0.5,1.4,0.6c0.6,0.1,1.5,0.1,2.2,0.1c0.1,0,0.2,0,0.3,0c0.8,0,2.2-0.1,2.7,0.8c0.2,0.5,0.7,0.7,1.2,0.8
	c0.6,0.1,1.6,0.2,2,0.2c0.1,0,0.1,0,0.1,0c0.1,0,0.2-0.2,0.7-0.3c0.2,0,0.4,0.1,0.6,0.2c0.2,0.1,0.4,0.1,0.6,0.1c0.2,0,0.4,0,0.7,0
	s0.8,0.1,1,0.6c0.3,0.7,1.6,1.4,1.7,2.3c0,0.5,0.7,1.1,1,1.5c0.1,0.2,0.8,1.4,0.8,1.4l-0.4,0.2C564.3,488.2,563.7,487.1,563.5,486.7
	"/>
<path id="Fill-519" fill="#6F8F9D" d="M544.1,480.3c-0.7-0.1-1.1-0.7-1.5-1.5c-0.2-0.3-0.3-0.4-0.4-0.4c0,0-0.2,0.1-0.2,0.3
	c-0.3,0.7-1.6,0.5-2.2,0.7c-0.2,0-0.2,0-0.4,0.1c-0.2,0-0.4-0.1-0.5-0.2c-0.1-0.2-0.1-0.3-0.1-0.5h0.4c0.1,0.4-0.1,0.3,0.2,0.4
	c0.1,0,0.2,0,0.3,0c0.7-0.1,1.9-0.2,1.9-0.4c0.1-0.3,0.2-0.6,0.6-0.6c0.2,0,0.5,0.2,0.7,0.6c0.4,0.7,0.8,1.2,1.2,1.3
	c0.5,0.1,2,0.5,2,0.5l-0.1,0.3C546,480.8,544.5,480.3,544.1,480.3"/>
<polyline id="Fill-520" fill="#6F8F9D" points="586.3,479.3 586.4,479 589.8,480.8 589.6,481 586.3,479.3 "/>
<path id="Fill-521" fill="#C3C8DB" d="M544.7,554.2l-4.2-1.7l1.2-1.2c0.8-1.2,1-2.6,1-3.9l-0.2-0.8l4.4,0.2c0,1.6-0.1,2.2-0.3,3.5
	s-0.8,2.4-0.8,2.4S545.2,553.7,544.7,554.2"/>
<path id="Fill-522" fill="#C3C8DB" d="M534.8,583.7l-4.2,0.6c-0.1-0.2-0.2-0.6-0.2-0.8c-0.5-2.7-0.2-5.3,0.2-8l4.1,0.6
	c0,0.2-0.1,0.3-0.1,0.5c-0.3,2-0.3,3.4-0.3,3.4S534,582.3,534.8,583.7"/>
<polyline id="Fill-523" fill="#C3C8DB" points="577.4,578 580.6,580.8 585.6,575.1 582.6,572.2 577.4,578 "/>
<polyline id="Fill-524" fill="#AAA4C5" points="577.4,578 579.1,579.4 584.1,573.6 582.6,572.2 577.4,578 "/>
<polyline id="Fill-525" fill="#C3C8DB" points="597.2,531.4 601.4,531.3 601.6,523.6 597.3,523.5 597.2,531.4 "/>
<polyline id="Fill-526" fill="#AAA4C5" points="597.2,531.4 599.3,531.4 599.5,523.6 597.3,523.5 597.2,531.4 "/>
<polyline id="Fill-527" fill="#C3C8DB" points="606.3,497.2 609.7,499.7 611.1,497.7 611.1,490.9 606.3,497.2 "/>
<polyline id="Fill-528" fill="#AAA4C5" points="606.3,497.2 607.9,498.5 611,494.4 611.1,492.5 611.1,490.9 606.3,497.2 "/>
<path id="Fill-529" fill="#AAA4C5" d="M544.7,554.2l-2.1-0.9l0.6-0.6c0.2-0.3,0.4-0.6,0.6-0.9c0.7-1.4,0.9-3.1,0.9-4.6l-0.1-0.3
	l2.2,0.1c0,1.6-0.1,2.2-0.3,3.5s-0.8,2.4-0.8,2.4S545.2,553.7,544.7,554.2"/>
<path id="Fill-530" fill="#AAA4C5" d="M534.8,583.7l-2.2,0.2c-0.1-0.3-0.3-1.4-0.4-2.1l-0.1-1.8l0.1-1.9l0.2-2.4l2.1,0.3
	c0,0.2-0.1,0.3-0.1,0.5c-0.3,2-0.3,3.4-0.3,3.4S534,582.3,534.8,583.7"/>
<polyline id="Fill-531" fill="#009949" points="610.9,491 611,490.9 611.2,491 611,491 610.9,491 "/>
<path id="Fill-532" fill="#C3C8DB" d="M554.9,599.8l0.8,4.1c1.2-0.1,2.4-0.3,3.6-0.7c1.4-0.4,2.8-1,4.1-1.6c0.1,0,0.4-0.2,0.5-0.2
	l-1.7-3.8c-1.2,0.7-3.4,1.5-3.4,1.5S557,599.6,554.9,599.8"/>
<path id="Fill-533" fill="#AAA4C5" d="M554.9,599.8l0.5,2c1.3-0.2,2.8-0.4,4.1-0.8c1.2-0.4,2.3-0.9,3.4-1.5l0.2-0.1l-0.8-1.9
	c-1.2,0.7-3.4,1.5-3.4,1.5S557,599.6,554.9,599.8"/>
<path id="Fill-534" fill="#00A3DA" d="M570.6,558c-0.2-0.1-0.2,0.3,0,0.2C570.7,558.3,570.9,558.1,570.6,558"/>
<path id="Fill-535" fill="#00A3DA" d="M571,556.1c-0.2-0.1-0.2,0.3,0,0.2C571,556.4,571.2,556.2,571,556.1"/>
<path id="Fill-536" fill="#00A3DA" d="M570,554.1c-0.2-0.1-0.2,0.3,0,0.2C570.1,554.3,570.3,554.1,570,554.1"/>
<path id="Fill-537" fill="#00A3DA" d="M570.5,551.7c-0.2-0.1-0.2,0.3,0,0.2C570.5,552,570.7,551.7,570.5,551.7"/>
<path id="Fill-538" fill="#00A3DA" d="M555.4,524.5c-0.2-0.1-0.2,0.3,0,0.2C555.5,524.7,555.7,524.5,555.4,524.5"/>
<path id="Fill-539" fill="#00A3DA" d="M554.9,521.5c-0.2-0.1-0.2,0.3,0,0.2C554.9,521.7,555,521.5,554.9,521.5"/>
<path id="Fill-540" fill="#00A3DA" d="M557.9,518.9c-0.2-0.1-0.2,0.3,0,0.2C557.9,519.2,558.1,519,557.9,518.9"/>
<path id="Fill-541" fill="#00A3DA" d="M558.5,519.1c-0.2-0.1-0.2,0.3,0,0.2C558.6,519.4,558.8,519.2,558.5,519.1"/>
<path id="Fill-542" fill="#00A3DA" d="M554.3,521.8c-0.2-0.1-0.2,0.3,0,0.2C554.4,522,554.5,521.9,554.3,521.8"/>
<path id="Fill-543" fill="#00A3DA" d="M554.9,522c-0.2-0.1-0.2,0.3,0,0.2C555,522.3,555.2,522,554.9,522"/>
<path id="Fill-544" fill="#00A3DA" d="M561,520.8c-0.2-0.1-0.2,0.3,0,0.2C561,521.1,561.2,520.8,561,520.8"/>
<path id="Fill-545" fill="#00A3DA" d="M589.8,529.6c-0.2-0.1-0.2,0.3,0,0.2C589.9,529.9,590,529.7,589.8,529.6"/>
<path id="Fill-546" fill="#00A3DA" d="M583.6,496.5c-0.2-0.1-0.2,0.3,0,0.2C583.6,496.8,583.8,496.5,583.6,496.5"/>
<path id="Fill-547" fill="#00A3DA" d="M552,526c-0.2-0.1-0.2,0.3,0,0.2C552.1,526.3,552.3,526.1,552,526"/>
<path id="Fill-548" fill="#00A3DA" d="M574.4,553.8c-0.2-0.1-0.2,0.3,0,0.2C574.5,554.1,574.7,553.9,574.4,553.8"/>
<path id="Fill-549" fill="#00A3DA" d="M579,555.8c-0.2-0.1-0.2,0.3,0,0.2C579.1,556,579.2,555.8,579,555.8"/>
<path id="Fill-550" fill="#00A3DA" d="M570.5,559.3c-0.2-0.1-0.2,0.3,0,0.2C570.5,559.5,570.7,559.3,570.5,559.3"/>
<path id="Fill-551" fill="#00A3DA" d="M570.5,561c-0.2-0.1-0.2,0.3,0,0.2C570.6,561.3,570.8,561,570.5,561"/>
<path id="Fill-552" fill="#00A3DA" d="M571.9,560.9c-0.2-0.1-0.2,0.3,0,0.2C571.9,561.2,572,561,571.9,560.9"/>
<path id="Fill-553" fill="#00A3DA" d="M586,563.4c-0.2-0.1-0.2,0.3,0,0.2C586,563.7,586.1,563.4,586,563.4"/>
<path id="Fill-554" fill="#00A3DA" d="M570.3,562.1c-0.2-0.1-0.2,0.3,0,0.2C570.3,562.4,570.5,562.2,570.3,562.1"/>
<path id="Fill-555" fill="#00A3DA" d="M561.9,563.1c-0.2-0.1-0.2,0.3,0,0.2C562,563.3,562.2,563.2,561.9,563.1"/>
<path id="Fill-556" fill="#00A3DA" d="M558.3,567.1c-0.2-0.1-0.2,0.3,0,0.2C558.3,567.3,558.5,567.2,558.3,567.1"/>
<path id="Fill-557" fill="#00A3DA" d="M568.1,572.3c-0.2-0.1-0.2,0.3,0,0.2C568.2,572.6,568.4,572.3,568.1,572.3"/>
<path id="Fill-558" fill="#00A3DA" d="M567.6,575.7c-0.2-0.1-0.2,0.3,0,0.2C567.6,576,567.8,575.7,567.6,575.7"/>
<path id="Fill-559" fill="#00A3DA" d="M566.1,578.3c-0.2-0.1-0.2,0.3,0,0.2C566.2,578.5,566.4,578.4,566.1,578.3"/>
<path id="Fill-560" fill="#00A3DA" d="M564.1,582.3c-0.2-0.1-0.2,0.3,0,0.2C564.2,582.5,564.3,582.3,564.1,582.3"/>
<path id="Fill-561" fill="#FFFFFE" d="M609.8,488c0,0,0,0.2,0.2,0.2c0.2,0.1,0.5,0.1,0.5-0.1c-0.1-0.2-0.2-0.4-0.3-0.4
	s-0.4,0-0.4,0.1S609.8,488,609.8,488"/>
<path id="Fill-562" fill="#00A3DA" d="M610,488.1c0.1,0,0.2,0,0.2,0c0-0.1-0.1-0.2-0.1-0.2c0-0.1-0.1-0.1-0.1-0.1
	c-0.1,0-0.2,0-0.2,0s0,0-0.1,0c0,0.1,0,0.1,0,0.2C609.8,488,609.8,488,610,488.1z M610,488.4c-0.3-0.1-0.4-0.4-0.4-0.4h0.2h-0.2
	c0,0,0-0.1,0-0.2c0.1-0.2,0.2-0.2,0.3-0.2s0.2,0,0.2,0c0.3,0.1,0.3,0.4,0.4,0.5v0.1c0,0.2-0.2,0.2-0.3,0.2
	C610.2,488.4,610.1,488.4,610,488.4z"/>
<path id="Fill-563" fill="#C3C8DB" d="M594.8,555l3.5,1.7l0.2-0.3c0.3-0.7,0.7-1.3,1-1.9c0.7-1.5,1.4-3.1,2.1-4.6l0.1-0.2l-3.6-1.7
	c-0.3,0.9-1.2,2.8-1.5,3.6C596.4,552.2,595.3,554.1,594.8,555"/>
<path id="Fill-564" fill="#AAA4C5" d="M594.8,555l1.7,0.9l0.1-0.2c0.4-0.7,0.7-1.4,1.2-2.2c0.7-1.5,1.3-3,2-4.5l0.2-0.3l-1.8-0.8
	c-0.3,0.9-1.2,2.8-1.5,3.6C596.4,552.2,595.3,554.1,594.8,555"/>
<polyline id="Fill-566" fill="#6F8F9D" points="519.9,615.7 519.9,478.5 528.2,478.6 528.2,478.7 528.2,478.8 520.1,478.8 
	520.1,615.4 610.9,615.4 610.9,478.8 528.2,478.8 528.2,478.6 611.2,478.6 611.2,615.7 519.9,615.7 "/>
</svg>
