<?xml version="1.0" encoding="UTF-8" standalone="no"?>
<svg width="560px" height="557px" viewBox="0 0 560 557" version="1.1" xmlns="http://www.w3.org/2000/svg" xmlns:xlink="http://www.w3.org/1999/xlink">
    <!-- Generator: Sketch 49 (51002) - http://www.bohemiancoding.com/sketch -->
    <title>Path 19</title>
    <desc>Created with Sketch.</desc>
    <defs></defs>
    <g id="Page-1" stroke="none" stroke-width="1" fill="none" fill-rule="evenodd" fill-opacity="0.3" opacity="0.879999995">
        <g id="Desktop-" transform="translate(-1858.000000, -4506.000000)" fill="#78808F" stroke="#78808F" stroke-width="3">
            <g id="Group-5" transform="translate(1504.000000, 4173.000000)">
                <path d="M775.5,335 L768.715603,336.580606 L764.916579,339.506436 L756.050504,339.506436 L747.462838,344.097661 L736.216362,341.994405 L729.491509,344.097661 L725.01671,344.097661 L719.59785,341.994405 L712.859075,348.224449 L708.862634,344.097661 L702.011231,344.097661 L700.435687,339.506436 L695.63692,335 L689.024696,335 L685.42309,339.506436 L671.283687,351.038915 L667.67955,359.959407 L663.106042,361.548871 L660.756014,358.538253 L660.756014,356.188224 L653.383225,361.548871 L645.799099,356.188224 L642.000076,344.097661 L634.064141,341.994405 L629.985443,339.506436 L623.862966,339.506436 L623.862966,348.224449 L628.378261,351.038915 L628.378261,353.936904 L620.244909,353.936904 L617.288706,356.188224 L625.687813,361.548871 L625.687813,365.351691 L620.244909,369.277264 L620.244909,372.710559 L623.862966,375.623734 L623.862966,378.197756 L618.792117,379.493626 L622.02926,385.57181 L612.156916,390.46802 L557.759088,395.775516 L549.937048,395.775516 L542.337736,403.359642 L542.337736,409.350507 L535.39142,409.350507 L530.282607,414.71242 L523.557753,412.853404 L516.030574,412.853404 L510.247251,410.967813 L505.826868,412.853404 L505.826868,420.059147 L498.481921,417.934377 L489.027389,420.059147 L479.867719,424.632655 L455.262651,424.632655 L444.922271,430.583024 L437.368517,441.738384 L426.690249,448.788471 L418.402506,448.788471 L411.809265,443.550577 L409.698415,437.93683 L404.336502,436.051239 L394.627605,426.53976 L394.627605,421.515735 L385.089551,421.515735 L366.23617,432.166161 L364.674546,441.738384 L356.16281,448.788471 L356.16281,456.5852 L378.854445,469.261689 L390.476774,470.598054 L390.476774,480.475262 L398.664542,484.850086 L398.664542,504.913283 L394.627605,512.467038 C394.627605,514.11809 394.627605,515.501701 394.627605,516.617869 C394.627605,517.734038 395.973251,519.35261 398.664542,521.473583 L405.782966,521.473583 L416.685226,519.038766 L418.402506,521.473583 L422.765942,521.473583 L422.765942,531.602625 L425.385521,532.93899 L430.281731,527.817522 L437.368517,527.817522 L437.368517,535.500357 L432.983568,538.709659 L432.983568,557.913583 L422.765942,564.132734 L407.177544,564.132734 L407.177544,580.536113 L416.685226,575.83732 L421.12206,575.83732 L421.12206,581.873743 L409.698415,595.661338 L409.698415,603.623848 L405.782966,604.961479 L399.971801,597.826604 L399.971801,587.343223 L388.007788,587.343223 L388.007788,601.892648 L377.019474,610.939689 L377.019474,625.399263 L381.266483,625.399263 L388.007788,619.264132 L390.476774,623.45799 L390.476774,629.14387 L394.627605,633.703458 L392.649633,637.375931 L378.808441,643.418806 L377.035479,658.612369 L386.245769,658.612369 L388.418628,664.634871 L400.105497,666.309124 L402.946539,662.960618 L402.946539,658.612369 L407.57826,657.302579 L410.944483,658.612369 L414.171502,668.208636 L416.891056,672.260759 L414.171502,679.012188 L407.57826,687.326506 L400.105497,691.579843 L397.906063,697.714975 L400.105497,707.26695 L405.46741,709.363879 L402.946539,718.947492 L397.906063,720.945712 L397.906063,726.841665 L402.946539,731.388597 L407.57826,726.841665 L412.454222,731.388597 L418.534937,732.82114 L422.459245,726.841665 L421.154517,714.036096 L426.050727,709.363879 L437.250379,707.26695 L443.427272,709.363879 L446.100003,714.036096 L446.100003,722.432672 L451.031647,726.841665 L463.408212,726.841665 L466.658009,728.396961 L465.122961,731.388597 L446.100003,743.662657 L446.100003,747.011164 L451.031647,749.671239 L448.395615,753.655025 L451.031647,758.705626 L443.427272,763.57526 L443.427272,772.327937 L448.395615,782.956055 L455.262651,789.969727 L459.177207,796.074749 L463.408212,805.504883 L464.08221,809.423828 L471.121112,813.612459 L479.867719,812.360393 L483.290039,815.503906 L489.027389,813.612459 L494.166992,817.538032 L491.35286,822.775553 L489.027389,829.614258 L493.133855,831.28636 L493.133855,838.660156 L501.267578,841.08894 L505.826868,845.596642 L510.247251,851.182548 L520.49707,849.470703 L527.197266,854.253883 L535.39142,849.470703 L535.39142,845.596642 L541.265625,849.470703 L541.265625,847.634766 L541.265625,841.08894 L547.171875,849.470703 L552.395508,849.470703 L557.759088,851.182548 L553.882812,854.253883 L560.451172,856.095703 L569.944336,851.182548 L577.422852,854.253883 L570.993201,863.348633 L569.944336,869.68457 L573.992917,872.5 L573.992917,879.240499 L580.257812,883.220838 L581.496339,888 L587.443435,888 L593.663232,883.220838 L589.223633,877.776367 L589.223633,872.5 L583.283203,871.171875 L584.291016,866.676758 L593.663232,868.077148 L593.663232,864.38791 C591.911666,864.494791 590.850242,864.148366 590.47896,863.348633 C590.107679,862.5489 590.107679,860.609041 590.47896,857.529055 L591.917969,860.393798 L596.913086,860.393798 L600.9375,856.095703 L610.724609,852.337891 L622.02926,851.182548 L635.644531,843.974609 L638.455078,847.634766 L642.000076,845.596642 L649.857422,849.470703 L660.756014,841.08894 L672.551758,834.999507 L674.181782,820.883789 L667.67955,813.612459 L672.551758,810.525239 L679.445746,825.074826 L682.241211,832.462891 L691.209961,831.28636 L694.157227,822.536133 L697.512695,826.683594 L700.435687,825.074826 L697.512695,819.120117 L703.612305,817.538032 L703.612305,820.883789 L706.976562,822.536133 L711.166016,817.538032 L715.647461,815.503906 L719.59785,819.120117 L725.01671,817.538032 L726.592773,813.612459 L731.657227,817.538032 L740.962891,815.503906 L744.741617,812.360393 L749.874023,813.612459 L749.874023,807.828125 L754.716797,804.348447 L758.725883,798.024807 L758.725883,792.769344 L768.715603,792.769344 L786.405319,781.816513 L786.405319,776.811523 L792.410261,774.873621 L788.139648,769.93457 L789.974609,765.874023 L802.483687,765.874023 L807.485352,761.71582 L807.485352,758.705626 L813.781103,754.62341 L811.342353,752.09082 L813.781103,747.011164 L819.431641,749.671239 L823.200195,747.011164 L821.418534,743.662657 L814.62028,742.316406 L823.200195,737.06543 L826.432617,742.316406 L830.40625,742.316406 L828.307689,735.029297 L831.894127,726.841665 L826.432617,722.432672 L830.40625,716.522461 L835.108699,716.522461 L836.791016,714.036096 L833.859375,708.358398 L828.307689,707.26695 L828.307689,701.800781 L835.108699,701.800781 L836.791016,705.348633 L839.28125,705.348633 L842.112305,707.26695 L843.558594,701.800781 L840.945612,700.374023 L845.804688,697.714975 L845.804688,694.111328 L850.417969,694.111328 L853.708008,685.492188 L858.786898,681.785156 L854.894531,679.012188 L859.974609,672.260759 L859.974609,668.208636 L864.198242,666.309124 L870.755859,656.135742 L869.571289,664.634871 L873.532059,664.634871 L876.84302,657.532345 L882.622108,656.135742 L878.454458,647.682617 L884.196289,643.418806 L882.622108,633.703458 L878.454458,633.703458 L878.454458,631.768555 L881.116211,627.223633 L882.622108,630.260742 L887.998047,631.768555 L891.038086,630.260742 L891.038086,619.264132 L891.038086,613.555664 L889.974029,609.52832 L884.196289,606.855469 L873.077072,595.661338 L869.571289,597.826604 L863.005859,601.892648 L856.773633,599.119141 L865.587907,594.266602 L865.587907,590.274414 L873.077072,586.235479 L878.454458,581.873743 L891.038086,580.536113 L886.729157,568.860352 L876.84302,564.132734 L863.005859,550.861328 L869.571289,552.446289 L875.598633,557.913583 L889.974029,564.132734 L891.038086,560.251953 L886.729157,546.788086 L876.84302,542.553711 L874.535156,534.389648 L863.005859,524.736328 L863.005859,515.200195 L856.773633,501.358631 L852.693811,493.175111 L850.417969,488.091797 L845.804688,474.476563 L838.236328,469.261689 L830.40625,467.723633 L823.200195,459.27832 L819.431641,459.27832 L818.305664,452.754883 L823.200195,448.788471 L824.21875,441.738384 L828.307689,439.867188 L830.40625,433.701172 L838.236328,433.701172 L836.791016,429.12793 L840.945612,429.12793 L840.945612,424.632655 L845.804688,421.515735 L842.112305,414.71242 L848.946289,412.853404 L847.560547,417.934377 L850.417969,420.059147 L858.786898,416.367188 L856.46875,409.350507 L859.974609,405.411133 L865.587907,406.769531 L864.198242,402.333008 L869.571289,398.685547 L885.395508,394.269531 L893.447529,389.071289 L897.07804,390.46802 L897.07804,394.269531 L901.65625,394.269531 L905.198483,390.46802 L902.703125,383.958984 L908.320312,382.560237 L906.839844,378.197756 L909.581055,375.623734 L900.014648,375.623734 L894.988281,372.710559 L884.196289,372.710559 L881.116211,375.623734 L878.454458,372.710559 L875.598633,369.277264 L870.755859,369.277264 L870.755859,365.351691 L866.602539,365.351691 L864.198242,361.548871 L858.786898,361.548871 L847.560547,365.351691 L847.560547,369.277264 L836.791016,375.623734 L836.791016,380.611328 L833.859375,382.560237 L826.432617,385.57181 L818.305664,382.560237 L812.351562,378.197756 L814.62028,365.351691 L821.418534,363.670898 L811.342353,353.936904 L809.407227,351.038915 L804.912109,351.038915 L802.483687,353.936904 L792.410261,351.038915 L784.035156,346.59668 L775.5,335 Z" id="Path-19"></path>
            </g>
        </g>
    </g>
</svg>