<?xml version="1.0" encoding="UTF-8" standalone="no"?>
<svg width="66px" height="59px" viewBox="0 0 66 59" version="1.1" xmlns="http://www.w3.org/2000/svg" xmlns:xlink="http://www.w3.org/1999/xlink">
    <!-- Generator: Sketch 49 (51002) - http://www.bohemiancoding.com/sketch -->
    <title>Shape</title>
    <desc>Created with Sketch.</desc>
    <defs></defs>
    <g id="Page-1" stroke="none" stroke-width="1" fill="none" fill-rule="evenodd" fill-opacity="0.3">
        <g id="Desktop-" transform="translate(-2046.000000, -5061.000000)" fill="#78808F" fill-rule="nonzero" stroke="#78808F" stroke-width="3">
            <g id="Group-5" transform="translate(1504.000000, 4173.000000)">
                <g id="Group-4" transform="translate(263.880119, 221.452944)">
                    <g transform="translate(-632.119606, -453.217831)" id="Group-3">
                        <g>
                            <polygon id="Shape" points="965.726518 1122.25185 966.399892 1124.41672 968.413664 1126.21093 972.218865 1126.63571 973.921359 1134.19933 973.031996 1136.5674 970.706948 1139.22406 969.283968 1138.82859 967.613237 1142.22945 966.069558 1142.61452 963.227833 1149.23756 962.556576 1152.57122 960.01554 1157.35175 960.104476 1160.2311 959.005478 1162.87621 953.813294 1163.94008 950.588296 1166.76176 949.269075 1170.85386 945.698919 1170.12411 943.619505 1171.07143 941.294457 1170.69766 939.503027 1174.83206 936.661301 1176.25323 933.328309 1173.62902 927.555922 1173.17181 926.111767 1173.66025 924.265281 1171.44629 921.9 1171.48533 916.561707 1168.21103 913.94444 1167.70976 913.908442 1161.80538 912.18689 1158.61714 912.872969 1156.27516 911.86926 1151.30528 913.114368 1149.80137 912.297001 1146.21779 913.927499 1143.62476 915.913743 1143.23753 920.33938 1139.93291 922.29386 1137.52618 925.952952 1136.18967 926.221879 1131.88176 929.783564 1128.66664 933.980508 1131.09171 935.594066 1130.31952 935.594066 1127.8456 937.381262 1126.68866 940.589319 1126.20417 942.89531 1127.8456 944.864613 1126.9185 948.256896 1127.67551 950.232551 1127.10551 951.985866 1124.63314 954.692069 1125.58101 957.866247 1124.25439 963.001257 1127.06045 962.71539 1124.28933"></polygon>
                        </g>
                    </g>
                </g>
            </g>
        </g>
    </g>
</svg>